<?xml version="1.0" standalone="no"?>
<!DOCTYPE svg PUBLIC "-//W3C//DTD SVG 1.1//EN" "http://www.w3.org/Graphics/SVG/1.1/DTD/svg11.dtd" >
<svg xmlns="http://www.w3.org/2000/svg">
<metadata></metadata>
<defs>
<font id="pf_centro_sans_prolight" horiz-adv-x="1089" >
<font-face units-per-em="2048" ascent="1536" descent="-512" />
<missing-glyph horiz-adv-x="540" />
<glyph unicode="&#xfb01;" horiz-adv-x="1050" d="M59 907v66q16 5 76 15.5t68 12.5v152q0 94 26 160t75.5 102.5t112.5 52t146 15.5q120 0 283 -31q-12 -51 -19 -90q-154 22 -249 22q-147 0 -207 -51.5t-60 -195.5v-140h590v-997h-115v907h-475v-907h-110v907h-142z" />
<glyph unicode="&#xfb02;" horiz-adv-x="1064" d="M61 907v66q16 5 76 15.5t68 12.5v142q0 95 25.5 161t76.5 103t115.5 52.5t152.5 15.5q144 -7 259 -25q10 1 40.5 7t38.5 7q0 -136 -1 -732t-1 -732h-110v1356q-148 20 -223 20q-144 0 -203.5 -52t-59.5 -196v-131h310v-90h-310q0 -81 -1 -453t-1 -454h-110v907h-142z" />
<glyph unicode="&#xfb03;" horiz-adv-x="1632" d="M63 907v66q16 5 74.5 16t65.5 12v138q0 85 28.5 148.5t81.5 101.5t122 56.5t155 18.5q140 0 276 -43q86 86 285 86q141 0 281 -30l-17 -93q-138 27 -244 27q-151 0 -212.5 -51t-61.5 -197v-164h586v-999h-115v907h-471v-907h-113v907h-469q0 -81 -1 -453t-1 -454h-112 v907h-138zM315 999h471v199q0 77 29 137q-108 31 -207 31q-168 0 -230.5 -63t-62.5 -213v-91z" />
<glyph unicode="&#xfb04;" horiz-adv-x="1650" d="M61 907v64q49 13 140 28v113q0 169 98 259.5t285 90.5q147 0 280 -43q47 46 124 66t202 20q101 -3 237 -22l70 16v-1499h-113v1389q-123 20 -223 20q-145 0 -205.5 -52.5t-60.5 -195.5v-166h313v-88h-313v-907h-113v907h-471q0 -150 -1 -453t-1 -454h-110v907h-138z M311 995h473v154q0 125 29 184q-115 33 -205 33q-169 0 -233 -63.5t-64 -215.5v-92z" />
<glyph horiz-adv-x="0" />
<glyph horiz-adv-x="682" />
<glyph unicode=" "  horiz-adv-x="540" />
<glyph unicode="&#x09;" horiz-adv-x="540" />
<glyph unicode="&#xa0;" horiz-adv-x="540" />
<glyph unicode="!" horiz-adv-x="423" d="M129 70q0 35 26.5 59.5t63.5 24.5q36 0 62 -24.5t26 -59.5q0 -37 -26.5 -63.5t-61.5 -26.5q-37 0 -63.5 26t-26.5 64zM160 1419h114l-2 -628l-14 -453h-76l-16 453z" />
<glyph unicode="&#x22;" horiz-adv-x="471" d="M86 1401h113l-25 -391h-61zM281 1401h110l-22 -391h-66z" />
<glyph unicode="#" horiz-adv-x="1062" d="M92 412l14 71h152q73 332 80 375h-160l17 70h159q5 29 41.5 189.5t36.5 162.5h76l-78 -352h334l78 352h78l-78 -352h155l-14 -70h-156l-82 -375h162l-14 -71h-162q-41 -171 -88 -412h-78l86 412h-332l-88 -412h-77l88 412h-150zM334 483h334q73 332 80 375h-332z" />
<glyph unicode="$" d="M127 104l41 89q137 -74 268 -89v586q-68 25 -116.5 50.5t-91.5 63.5t-65 91.5t-22 122.5q0 139 81 225.5t214 114.5v135h62v-1649h-62v164q-170 16 -309 96zM244 1028q0 -96 48 -146t144 -87v467q-86 -24 -139 -82t-53 -152zM569 -156v1649h64v-129q146 -11 250 -74 l-33 -84q-112 54 -217 64v-537q49 -20 74 -31t67.5 -32t65.5 -38.5t52.5 -45.5t44 -57.5t25.5 -69.5t11 -86q0 -155 -93 -244.5t-247 -114.5v-170h-64zM633 109q237 39 237 270q0 48 -17.5 87.5t-51.5 69.5t-74 51.5t-94 41.5v-520z" />
<glyph unicode="%" horiz-adv-x="1638" d="M59 944q0 60 7 113.5t28.5 112.5t56 101t95.5 69.5t141 27.5q59 0 106.5 -15t79 -39.5t55.5 -60.5t37 -71.5t21 -80.5t10 -80t2 -75q0 -61 -9 -116t-31.5 -109t-57 -93.5t-90.5 -64t-127 -24.5q-80 0 -139.5 23.5t-94 61t-55.5 92.5t-28 108.5t-7 119.5zM160 942 q0 -59 4.5 -103.5t19 -89t39 -72.5t66 -45.5t98.5 -17.5q62 0 106 29t66 80t31.5 104.5t9.5 116.5q0 38 -2 68.5t-8.5 74t-21 76t-36.5 62.5t-59.5 46.5t-85.5 16.5q-227 0 -227 -346zM481 -47l588 1479h82l-584 -1479h-86zM938 399q0 60 7 113.5t28.5 112.5t56 101 t95.5 69.5t141 27.5q59 0 106.5 -15t79 -39t55.5 -60t37 -71.5t21 -80.5t10 -80t2 -76q0 -61 -9 -116t-31.5 -109.5t-57 -94.5t-90.5 -64.5t-127 -24.5q-80 0 -139.5 24t-94 61.5t-55.5 93t-28 109t-7 119.5zM1038 397q0 -59 5 -103.5t19.5 -88.5t39 -72t66 -45.5 t98.5 -17.5q62 0 106 29t66 79.5t31.5 104t9.5 116.5q0 47 -2.5 84t-15 89t-33.5 86.5t-63 59.5t-99 25q-228 0 -228 -346z" />
<glyph unicode="&#x26;" horiz-adv-x="1445" d="M59 367q0 134 88.5 241.5t262.5 204.5q-115 156 -115 285q0 122 74 203t202 81q134 0 205.5 -74t71.5 -184q0 -100 -74 -183t-221 -165q229 -331 410 -512q107 102 171 233t78 324h97q-13 -207 -85 -356t-194 -264q72 -70 155.5 -128t157.5 -89q-7 -15 -47 -82 q-73 34 -172.5 100.5t-173.5 136.5q-101 -77 -220.5 -117t-237.5 -40q-190 0 -311.5 98.5t-121.5 286.5zM166 371q0 -148 91 -226.5t230 -78.5q201 0 398 137q-89 94 -193 221q-152 193 -231 309q-141 -76 -218 -162t-77 -200zM401 1108q0 -104 105 -252q242 122 242 268 q0 76 -49 123t-134 47q-44 0 -77.5 -18.5t-51.5 -48t-26.5 -60t-8.5 -59.5z" />
<glyph unicode="'" horiz-adv-x="339" d="M115 1401h112l-24 -391h-64z" />
<glyph unicode="(" horiz-adv-x="555" d="M121 586q0 131 24 258.5t56 218.5t77 178.5t74.5 132.5t61.5 86l47 -33q-23 -36 -46 -77.5t-58 -124.5t-60.5 -170.5t-44.5 -212.5t-19 -254q0 -520 230 -905l-49 -35q-32 43 -60 86.5t-74 136t-78 189t-56.5 237.5t-24.5 289z" />
<glyph unicode=")" horiz-adv-x="557" d="M82 -317q229 383 229 905q0 129 -18.5 254t-44 212.5t-60.5 170.5t-58 124.5t-46 77.5l49 33q32 -43 60.5 -86.5t74 -132t77 -178.5t55.5 -218t24 -259q0 -148 -24.5 -289t-56.5 -237.5t-78 -189t-74 -136t-60 -86.5z" />
<glyph unicode="*" horiz-adv-x="735" d="M88 1151q3 73 39 123l217 -109q-6 45 -20 131.5t-17 108.5q34 6 68 6q43 0 63 -6q-7 -38 -19.5 -118.5t-19.5 -121.5q117 54 217 105q39 -47 39 -123q-47 -6 -133 -19.5t-110 -17.5q33 -31 92 -92t78 -80q-40 -52 -101 -76q-9 17 -112 217l-107 -215q-62 20 -104 74 q24 26 52.5 55.5t62.5 64.5t53 54q-40 7 -119 19.5t-119 19.5z" />
<glyph unicode="+" d="M166 565v88h338v334h92v-334h336v-88h-336v-346h-92v346h-338z" />
<glyph unicode="," horiz-adv-x="346" d="M74 -193q34 38 52.5 87.5t20.5 97.5q-29 6 -47 27.5t-18 52.5q0 36 25 61t61 25q42 0 68 -29.5t26 -77.5q0 -71 -45 -155t-113 -125z" />
<glyph unicode="-" horiz-adv-x="708" d="M106 477v103h496v-103h-496z" />
<glyph unicode="." horiz-adv-x="364" d="M92 74q0 35 25.5 60.5t60.5 25.5t60.5 -25.5t25.5 -60.5t-26 -60.5t-60 -25.5q-35 0 -60.5 25.5t-25.5 60.5z" />
<glyph unicode="/" horiz-adv-x="659" d="M23 -55l528 1487h84l-526 -1487h-86z" />
<glyph unicode="0" d="M61 666q0 69 5 134t19.5 138t37.5 134.5t61.5 119t88.5 98t122 64.5t158 24q475 0 475 -706q0 -101 -14 -194t-48.5 -184.5t-87 -158.5t-136.5 -108t-191 -41q-87 0 -158.5 20.5t-121.5 55.5t-88 87.5t-61 109t-37 127.5t-19 137t-5 143zM178 662q0 -103 8.5 -183.5 t33.5 -158t65.5 -128.5t108.5 -81.5t159 -30.5q84 0 148.5 35.5t103.5 92t63.5 135.5t33.5 157t9 166q0 58 -2 104t-10 113t-22 118t-40.5 106.5t-63.5 91.5t-93.5 59.5t-126.5 23.5q-375 0 -375 -620z" />
<glyph unicode="1" d="M209 1206v80l315 72h111v-1358h-113v1237z" />
<glyph unicode="2" d="M70 0v84l182 172q87 81 153 147.5t138 150t119 154.5t77.5 148t30.5 143q0 136 -81 204.5t-214 68.5q-178 0 -350 -111q-17 29 -45 74q188 137 414 137q177 0 287 -90t110 -268q0 -85 -35.5 -176.5t-87.5 -168.5t-129.5 -164.5t-142 -149.5t-146 -140t-121.5 -121 q2 -2 2 -4q118 0 355.5 -1t355.5 -1v-88h-872z" />
<glyph unicode="3" d="M80 55l31 84q197 -59 344 -59q177 0 281 85.5t104 254.5q0 143 -104.5 219t-293.5 76q-70 0 -127 -8q-21 63 -26 73l463 471l-9 9h-610v96h766l21 -76q-100 -102 -461 -463l4 -8h53q203 0 322.5 -98.5t119.5 -288.5q0 -107 -38 -191.5t-104 -137.5t-152 -81t-185 -28 q-239 0 -399 71z" />
<glyph unicode="4" d="M51 385v92q95 127 319 423t343 456h121v-881h200v-90h-200q0 -65 1 -193.5t1 -191.5h-115q0 63 1 191.5t1 193.5h-672zM162 475h563v731h-10z" />
<glyph unicode="5" d="M96 57l31 84q191 -61 336 -61q186 0 289.5 85.5t103.5 258.5q0 154 -100 236.5t-254 82.5q-130 0 -244 -57q-8 3 -38.5 23.5t-35.5 23.5q3 65 17.5 311.5t17.5 311.5h694v-96h-596q-5 -63 -28 -472q6 2 37 13.5t53.5 17.5t67 12.5t94.5 6.5q64 0 124.5 -14t117.5 -46 t99 -79t67.5 -117.5t25.5 -157.5q0 -88 -25 -161.5t-69 -124.5t-104 -86.5t-129 -52.5t-146 -17q-238 0 -406 75z" />
<glyph unicode="6" d="M106 621q0 224 56.5 392t175 265.5t287.5 97.5q161 0 290 -61l-30 -84q-128 49 -258 49q-67 0 -124.5 -22.5t-97.5 -58t-72 -85t-51.5 -99t-33 -104t-19.5 -96t-8 -78.5l8 -6q177 105 369 105q82 0 152 -23.5t127 -71t89.5 -130t32.5 -191.5q0 -199 -121 -316.5 t-319 -117.5q-106 0 -186 33.5t-130 89.5t-81.5 139t-43.5 173t-12 200zM223 575q0 -497 340 -497q152 0 238 92t86 242q0 329 -309 329q-203 0 -355 -114v-52z" />
<glyph unicode="7" d="M137 1262v96h803v-92l-567 -1266h-113l569 1262h-692z" />
<glyph unicode="8" d="M86 328q0 126 65.5 243.5t200.5 196.5q-103 57 -150.5 122.5t-47.5 158.5q0 138 112.5 234.5t290.5 96.5q72 0 139.5 -18.5t126.5 -54.5t95 -100t36 -146q0 -198 -215 -352q246 -124 246 -353q0 -156 -120.5 -263t-329.5 -107q-218 0 -333.5 97.5t-115.5 244.5zM203 342 q0 -52 19 -98t58 -84.5t106 -61t155 -22.5q158 0 244.5 83t86.5 199q0 47 -12.5 86t-39 70t-57.5 56t-80 49.5t-93.5 43.5t-109.5 46q-8 3 -13 5t-13 5t-14 6q-123 -77 -180 -178t-57 -205zM272 1049q0 -24 6 -45.5t14 -39t25.5 -36t30.5 -31t39.5 -28.5t42.5 -25.5 t49.5 -24.5t50 -22t54.5 -23t53 -22q207 141 207 290q0 42 -16 83t-49 78t-92 60t-136 23q-74 0 -131.5 -25t-88 -63.5t-45 -76.5t-14.5 -72z" />
<glyph unicode="9" d="M80 940q0 201 120 318.5t320 117.5q105 0 185 -33.5t130 -90t81.5 -139.5t44 -172.5t12.5 -199.5q0 -225 -57 -392.5t-175.5 -264t-287.5 -96.5q-96 0 -180.5 17.5t-131.5 41.5l31 84q129 -51 281 -51q77 0 140.5 29t105.5 78.5t73 106.5t48 122t25.5 114.5t10.5 94.5 l-8 6q-168 -109 -367 -109q-83 0 -153 23.5t-127 72t-89 131t-32 191.5zM193 950q0 -332 307 -332q40 0 78.5 5t69 12.5t59.5 17.5t50 20t40 21t30 18.5t20 13.5l9 7v51q0 53 -4.5 101t-16 108.5t-35.5 108.5t-60 90t-93.5 65t-130.5 23q-153 0 -238 -90.5t-85 -239.5z" />
<glyph unicode=":" horiz-adv-x="360" d="M96 78q0 34 25.5 59t60.5 25t60.5 -25t25.5 -59q0 -36 -24 -62t-60 -26t-62 26t-26 62zM96 715q0 35 25.5 59.5t60.5 24.5t60.5 -24.5t25.5 -59.5q0 -36 -25 -62t-59 -26q-35 0 -61.5 26.5t-26.5 61.5z" />
<glyph unicode=";" horiz-adv-x="360" d="M84 -190q71 80 74 182q-30 6 -48 28t-18 52q0 36 25 61t63 25q41 0 67.5 -30t26.5 -77q0 -70 -45.5 -153.5t-113.5 -126.5zM96 715q0 35 25.5 59.5t60.5 24.5t60.5 -24.5t25.5 -59.5q0 -36 -25 -62t-59 -26q-35 0 -61.5 26.5t-26.5 61.5z" />
<glyph unicode="&#x3c;" d="M162 565v84l776 398v-105l-674 -334l674 -338v-104z" />
<glyph unicode="=" d="M152 426v88h784v-88h-784zM152 717v90h784v-90h-784z" />
<glyph unicode="&#x3e;" d="M162 166v104l674 338l-674 334v105l776 -398v-84z" />
<glyph unicode="?" horiz-adv-x="868" d="M86 1376q180 62 354 62q183 0 278 -72t95 -203q0 -56 -25 -111t-65 -101t-88.5 -91t-97.5 -88t-89 -85t-65 -89.5t-25 -93.5q0 -40 19 -152l-101 -18q-24 107 -24 184q0 57 24 111t63 98.5t85.5 87.5t93 84t85.5 81t63 86.5t24 92.5q0 93 -68.5 136.5t-183.5 43.5 q-153 0 -323 -55zM279 68q0 34 25.5 59t60.5 25q36 0 62 -25t26 -59q0 -37 -25.5 -60.5t-60.5 -23.5q-36 0 -62 24t-26 60z" />
<glyph unicode="@" horiz-adv-x="1769" d="M152 680q0 154 62 289.5t167 230t247 149t298 54.5q326 0 514 -178.5t188 -479.5q-1 -102 -31 -183.5t-78.5 -130.5t-106.5 -75t-118 -26q-169 0 -217 116q-52 -49 -126.5 -81.5t-155.5 -32.5q-61 0 -105 21t-65.5 56t-31 69.5t-9.5 70.5q0 100 67 154t183 65l225 16v66 q0 104 -36.5 144t-131.5 40q-114 0 -236 -45q-12 32 -20 68q128 59 278 59q234 0 234 -237v-332q0 -68 39 -104.5t114 -36.5q45 0 87 19.5t79 58t59.5 105.5t22.5 154q0 278 -168.5 434t-453.5 156q-188 0 -347.5 -84.5t-254.5 -234t-95 -330.5q0 -184 84 -333t230 -232.5 t325 -83.5q126 0 244 39l21 -68q-122 -45 -259 -45q-209 0 -374 92.5t-256.5 256.5t-91.5 370zM678 555q0 -69 37 -109t112 -40q120 0 232 100v215l-215 -19q-73 -5 -119.5 -44t-46.5 -103z" />
<glyph unicode="A" horiz-adv-x="1128" d="M29 0l456 1399h156q86 -261 241 -740t214 -659h-125l-123 383h-576q-19 -60 -57.5 -188t-60.5 -195h-125zM305 477h514q-97 318 -186 592q-5 19 -68 225h-6l-70 -225z" />
<glyph unicode="B" horiz-adv-x="1196" d="M164 0v1397h465q196 0 298.5 -95t102.5 -255q0 -32 -7.5 -68.5t-26 -81t-57.5 -87.5t-93 -73v-14q52 -18 92.5 -49.5t65.5 -67t41 -78t22 -80t6 -75.5q0 -166 -110 -269.5t-269 -103.5h-530zM283 94h370q78 0 137 23.5t93.5 65t51.5 92.5t17 112q0 119 -82.5 205 t-218.5 86h-368v-584zM283 774h333q135 0 214 70.5t79 189.5q0 122 -75 195.5t-228 73.5h-323v-529z" />
<glyph unicode="C" horiz-adv-x="1165" d="M123 690q0 98 15 192t56 194.5t104 174.5t169 122t242 48q210 0 348 -55l-29 -92q-148 49 -309 49q-237 0 -354 -167.5t-117 -467.5q0 -104 10.5 -186.5t41.5 -163t82 -134.5t136.5 -87t200.5 -33q66 0 165 12t175 35l24 -86q-68 -27 -178 -43t-207 -16 q-125 0 -222.5 32.5t-163.5 91.5t-108.5 147.5t-61.5 194.5t-19 238z" />
<glyph unicode="D" horiz-adv-x="1275" d="M164 0v1401h430q559 0 559 -699q0 -702 -580 -702h-409zM287 98h270q29 0 49 1t59.5 6.5t69 15.5t69 31t69 49.5t60.5 74t50.5 102.5t32 136.5t12.5 173.5q0 123 -18.5 221.5t-47 162t-71.5 109.5t-81 69t-88 36.5t-81 16t-70 2.5h-284v-1207z" />
<glyph unicode="E" horiz-adv-x="1087" d="M164 0v1399h805v-94h-684v-517h585v-94h-585v-598h719v-96h-840z" />
<glyph unicode="F" horiz-adv-x="1030" d="M164 0v1399h801v-96h-680v-521h577v-96h-577v-686h-121z" />
<glyph unicode="G" horiz-adv-x="1247" d="M123 692q0 68 8 135t28 140t50.5 137.5t79.5 123.5t111 101t148.5 67t188.5 25q217 0 355 -55l-25 -90q-161 47 -322 47q-248 0 -372.5 -169t-124.5 -470q0 -101 11 -183t42 -162t82 -133.5t135.5 -86.5t196.5 -33q62 0 142.5 10.5t131.5 28.5v584h115v-664 q-180 -59 -404 -59q-577 0 -577 706z" />
<glyph unicode="H" horiz-adv-x="1282" d="M164 0v1399h125q0 -55 -1 -304t-1 -304h706v608h125v-1399h-125v688h-706q0 -61 1 -343t1 -345h-125z" />
<glyph unicode="I" horiz-adv-x="487" d="M184 0v1401h119v-1401h-119z" />
<glyph unicode="J" horiz-adv-x="579" d="M-88 -279q98 56 159.5 105t105 109t61.5 132t18 169v1165h119v-1159q0 -123 -27.5 -219t-83.5 -168t-132 -124.5t-183 -97.5z" />
<glyph unicode="K" horiz-adv-x="1126" d="M164 0v1401h121v-676l655 676h143l-548 -561l563 -840h-137l-506 756l-170 -172v-584h-121z" />
<glyph unicode="L" horiz-adv-x="1087" d="M186 0v1399h123v-1305h748v-94h-871z" />
<glyph unicode="M" horiz-adv-x="1626" d="M164 0v1397h135q77 -168 221 -494t213 -479l74 -170h10q8 16 76 172q84 189 245.5 546t192.5 425h129v-1397h-117q0 193 -1 582.5t-1 584.5h-4l-94 -213q-45 -100 -127 -279t-143.5 -314.5t-104.5 -233.5h-116q-56 127 -162 356q-47 111 -215 478l-90 208h-6v-1169h-115z " />
<glyph unicode="N" horiz-adv-x="1347" d="M164 0v1399h123q71 -107 302 -465t304 -475l164 -254h8v1194h119l-2 -1399h-117l-612 948l-164 264q-1 0 -4 -1t-4 -1v-1210h-117z" />
<glyph unicode="O" horiz-adv-x="1384" d="M123 688q0 119 18.5 223.5t61.5 199.5t108.5 162.5t166 107.5t227.5 40q128 0 227 -40.5t160.5 -107t100.5 -162.5t54 -197t15 -220q0 -152 -35.5 -280.5t-104 -224t-175.5 -149t-242 -54.5q-156 0 -269 48t-181 141t-100 219.5t-32 293.5zM248 684q0 -301 108.5 -452.5 t341.5 -151.5q109 0 194 47.5t137.5 131t79 192.5t26.5 237q0 639 -430 639q-457 0 -457 -643z" />
<glyph unicode="P" horiz-adv-x="1075" d="M164 0v1401h432q187 0 303.5 -102.5t116.5 -294.5q0 -54 -11 -107t-39.5 -109.5t-72.5 -98.5t-116 -69.5t-163 -27.5h-329l2 -592h-123zM285 686h315q57 0 105.5 15t92 49t68.5 97t25 150q0 150 -83 229t-214 79h-309v-619z" />
<glyph unicode="Q" horiz-adv-x="1384" d="M123 688q0 120 18 224t61 199t108.5 162.5t166 107.5t228.5 40t226.5 -40.5t160 -107.5t100.5 -163t54.5 -197.5t15.5 -220.5q0 -243 -90.5 -420t-258.5 -245q136 -37 336 -86l-41 -113q-17 6 -210 68.5t-242 80.5q-7 1 -26 2.5t-25 2.5q-157 5 -269.5 53.5t-181 140.5 t-100 217.5t-31.5 294.5zM248 684q0 -301 108 -453.5t340 -152.5q110 0 195 47.5t137.5 132t79.5 193.5t27 237q0 637 -430 637q-90 0 -162 -25t-121 -71t-84 -104.5t-54 -133t-27.5 -148.5t-8.5 -159z" />
<glyph unicode="R" horiz-adv-x="1153" d="M164 0v1401h440q206 0 310 -103.5t104 -273.5q0 -83 -25.5 -155.5t-84 -130.5t-142.5 -79q77 -24 118.5 -83.5t69.5 -157.5l121 -418h-123l-114 401q-41 129 -109.5 178.5t-177.5 49.5h-266v-629h-121zM285 725h313q130 0 212.5 71t82.5 222q0 142 -82 213.5t-219 71.5 h-307v-578z" />
<glyph unicode="S" horiz-adv-x="1120" d="M94 88l41 90q195 -94 393 -94q186 0 280.5 68.5t94.5 224.5q0 54 -17 96.5t-43.5 71t-72 52t-89 38t-108.5 31.5q-63 17 -101.5 28t-92 30t-86 37.5t-69 46.5t-56.5 60t-33.5 75t-13.5 95q0 181 123 283t323 102q217 0 367 -73l-39 -93q-171 66 -336 66 q-141 0 -227 -72.5t-86 -210.5q0 -36 10.5 -66t26 -52t44.5 -42.5t53 -33t65.5 -26.5t68.5 -22t74 -20q164 -44 228 -74q164 -76 200 -224q12 -47 12 -103q0 -102 -37.5 -178.5t-105.5 -122t-156.5 -68t-196.5 -22.5q-263 0 -438 102z" />
<glyph unicode="T" horiz-adv-x="1097" d="M39 1303v98h1018v-98h-447l-2 -1303h-119v1303h-450z" />
<glyph unicode="U" horiz-adv-x="1339" d="M156 498v903h116l2 -901q0 -207 101 -313.5t295 -106.5q193 0 294 106t101 314v901h121v-903q0 -236 -131.5 -374t-386.5 -138q-512 0 -512 512z" />
<glyph unicode="V" horiz-adv-x="1081" d="M29 1401h129l301 -1002l80 -274h8l82 278l299 998h125l-439 -1401h-147z" />
<glyph unicode="W" horiz-adv-x="1652" d="M29 1397h123q191 -821 200 -860l90 -396h9q30 122 88 385q139 599 202 871h127q198 -737 234 -867q5 -16 104 -389h11l88 391l198 865h119q-226 -936 -340 -1397h-145q-37 141 -113.5 421.5t-116.5 430.5q-71 277 -96 365h-12q-13 -65 -42.5 -191.5t-43.5 -191.5 q-99 -414 -193 -834h-151z" />
<glyph unicode="X" horiz-adv-x="1081" d="M27 0q412 678 440 725q-214 354 -412 674h135q124 -211 353 -590l354 590h133q-80 -130 -227.5 -367.5t-192.5 -310.5l443 -721h-135l-381 635l-379 -635h-131z" />
<glyph unicode="Y" horiz-adv-x="1024" d="M25 1401h129l219 -416l129 -256h8l133 254l227 418h127l-428 -770v-631h-127v623z" />
<glyph unicode="Z" horiz-adv-x="1028" d="M39 0v98l770 1202h-721v101h866v-98l-770 -1203h805v-100h-950z" />
<glyph unicode="[" horiz-adv-x="499" d="M119 -328v1753h307v-86h-197v-1579h197v-88h-307z" />
<glyph unicode="\" horiz-adv-x="659" d="M23 1432h83l529 -1487h-86z" />
<glyph unicode="]" horiz-adv-x="499" d="M76 -240h196v1579h-196v86h305v-1753h-305v88z" />
<glyph unicode="^" horiz-adv-x="880" d="M51 801q202 342 348 596h84l340 -596h-96l-289 502l-286 -502h-101z" />
<glyph unicode="_" horiz-adv-x="1024" d="M0 -180h1024v-74h-1024v74z" />
<glyph unicode="`" horiz-adv-x="978" d="M272 1391l93 84l231 -314l-57 -49z" />
<glyph unicode="a" horiz-adv-x="1036" d="M82 262q0 132 89 208t237 85l313 16v82q0 143 -48.5 201.5t-180.5 58.5q-143 0 -312 -59l-28 80q178 76 364 76q158 0 238 -76.5t80 -249.5v-594h135q0 -2 6 -67q-67 -33 -150 -33q-59 0 -83 28q-22 25 -21 81v14q-2 2 -4 2q-56 -44 -110 -72t-101 -39t-73.5 -13.5 t-61.5 -2.5q-65 0 -116 17t-83 44.5t-53 64t-29 73t-8 75.5zM205 274q0 -100 51 -149t158 -49q136 0 307 141v272l-285 -16q-113 -4 -172 -56.5t-59 -142.5z" />
<glyph unicode="b" horiz-adv-x="1017" d="M121 70v1384h115v-326q0 -13 -2.5 -99t-2.5 -101l7 -4q175 92 315 92q83 0 146.5 -26t104.5 -71.5t67 -112.5t36.5 -143.5t10.5 -170.5q0 -87 -12.5 -160t-43 -137.5t-76.5 -109.5t-117 -71t-161 -26q-202 0 -387 82zM236 133q122 -53 264 -53q147 0 224 95t77 312 q0 124 -18.5 210t-54.5 134t-82.5 68.5t-108.5 20.5q-132 0 -301 -97v-690z" />
<glyph unicode="c" horiz-adv-x="911" d="M100 483q0 69 10 135.5t39.5 141t75.5 129t126.5 91t185.5 36.5q162 0 280 -51l-31 -86q-115 41 -241 41q-160 0 -243 -115t-83 -313q0 -412 309 -412q77 0 144 16t153 51l31 -79q-149 -82 -334 -82q-92 0 -164 24.5t-120 67.5t-79.5 106t-45 136.5t-13.5 162.5z" />
<glyph unicode="d" horiz-adv-x="1019" d="M100 477q0 117 21.5 212t67 169.5t122.5 115t181 40.5q160 0 290 -78v516h115v-1452h-113v102q-1 0 -2 1t-2 1q-66 -54 -150 -85t-167 -31q-80 0 -142.5 25t-103.5 69t-68 106.5t-38 133.5t-11 155zM219 475q0 -215 71 -305t204 -90q66 0 153 37t135 84v637 q-48 32 -126.5 56t-149.5 24q-62 0 -112 -22.5t-90.5 -72t-62.5 -138t-22 -210.5z" />
<glyph unicode="e" horiz-adv-x="995" d="M100 494q0 40 3.5 81t15 94t30 99.5t51 92.5t75 79t105 53.5t138.5 20.5q63 0 115.5 -13.5t89.5 -33.5t67 -53.5t48 -62.5t31 -72t19 -70.5t9.5 -69.5t3.5 -57v-45v-60h-682v-10q0 -389 307 -389q86 0 157.5 18t160.5 58l30 -78q-170 -90 -352 -90q-99 0 -174 27 t-121.5 72t-75.5 111.5t-40 138t-11 159.5zM221 559h570q0 84 -13.5 149t-44 115.5t-84 77.5t-129.5 27q-268 0 -299 -369z" />
<glyph unicode="f" horiz-adv-x="690" d="M76 909v66l141 29v176q0 146 77 219.5t224 73.5q88 0 180 -21l-14 -86q-82 14 -143 14q-108 0 -159.5 -45.5t-51.5 -150.5v-185h297v-90h-297l-2 -909h-111v909h-141z" />
<glyph unicode="g" horiz-adv-x="1069" d="M92 -154q0 82 39 150t92 100q-125 18 -125 137q0 42 16 73.5t43.5 48.5t55 26t59.5 12l2 6q-62 30 -102.5 99.5t-40.5 169.5q0 73 22 132.5t58.5 99t85.5 66.5t101.5 38.5t107.5 11.5q109 0 182 -23h307v-82h-172l-4 -6q90 -76 90 -231q0 -158 -110 -248t-293 -90h-117 q-88 0 -134 -17.5t-46 -68.5q0 -38 32 -59t89 -21h274q180 0 270.5 -76t90.5 -215q0 -150 -127 -236.5t-336 -86.5q-410 0 -410 290zM205 -131q0 -48 13.5 -85.5t46.5 -70.5t97.5 -51t157.5 -18q149 0 239.5 63t90.5 170q0 205 -264 205h-244q-58 -23 -97.5 -86t-39.5 -127z M246 672q0 -112 69.5 -181t178.5 -69q138 0 219.5 64.5t81.5 187.5q0 46 -14 88t-44.5 80.5t-87 62t-131.5 23.5q-131 0 -201.5 -68t-70.5 -188z" />
<glyph unicode="h" horiz-adv-x="1003" d="M121 0v1454h112v-305q0 -160 -4 -242l13 -6q99 53 197 84t167 31q55 0 99 -10.5t72.5 -26.5t49 -42.5t31.5 -50.5t16.5 -59t7 -60t1.5 -60v-707h-115v672q0 50 -3.5 83.5t-14.5 67t-31.5 52.5t-56.5 31t-87 12q-73 0 -165 -32t-174 -77v-809h-115z" />
<glyph unicode="i" horiz-adv-x="460" d="M147 1253q0 35 24 60.5t58 25.5q35 0 59.5 -25.5t24.5 -60.5q0 -33 -24.5 -57.5t-59.5 -24.5q-33 0 -57.5 24.5t-24.5 57.5zM172 0v997h115v-997h-115z" />
<glyph unicode="j" horiz-adv-x="479" d="M-51 -362q144 80 191.5 153t47.5 203l-2 1003h115v-1001q-3 -119 -31.5 -195.5t-95.5 -134.5t-190 -108zM164 1253q0 35 24 60.5t58 25.5t59 -25.5t25 -60.5q0 -32 -25 -57t-59 -25q-33 0 -57.5 24.5t-24.5 57.5z" />
<glyph unicode="k" horiz-adv-x="878" d="M119 0v1450h114v-657l-4 -250q3 0 11 -4l120 123l338 333h133l-391 -389q8 -11 30.5 -38.5t33.5 -43.5q12 -17 161 -239t193 -285h-129q-69 100 -193 285t-169 252q-21 -22 -66.5 -66.5t-67.5 -67.5v-403h-114z" />
<glyph unicode="l" horiz-adv-x="419" d="M152 0v1454h114v-1454h-114z" />
<glyph unicode="m" horiz-adv-x="1613" d="M121 0v997h110q0 -7 1 -47t1 -47q1 0 4.5 -2t4.5 -2q188 115 350 115q178 0 242 -125q96 59 193.5 92t176.5 33q76 0 131.5 -19.5t85 -47.5t46 -71.5t20.5 -79t4 -83.5v-713h-115v670q0 51 -3.5 85t-15 67.5t-32.5 52.5t-57 31t-88 12q-71 0 -162.5 -32t-163.5 -75 q8 -52 8 -115v-696h-114v688q0 116 -40.5 171.5t-144.5 55.5q-145 0 -327 -108v-807h-115z" />
<glyph unicode="n" horiz-adv-x="1003" d="M121 0v997h112q0 -7 1.5 -45.5t1.5 -46.5q4 -2 6 -4q88 54 187.5 84.5t174.5 30.5t128.5 -18.5t82 -45.5t44.5 -70t20 -78.5t4 -84.5v-719h-115v670q0 62 -7.5 103.5t-27.5 76.5t-59 51.5t-99 16.5q-72 0 -164.5 -32t-174.5 -77v-809h-115z" />
<glyph unicode="o" horiz-adv-x="1034" d="M100 489q0 81 14 154.5t46 142t80.5 118.5t121.5 80t164 30q93 0 166 -30t118 -79t74 -118t40.5 -140.5t11.5 -152.5q0 -79 -11.5 -148.5t-41.5 -137t-77 -115.5t-122 -77.5t-172 -29.5q-93 0 -165 27.5t-118 73.5t-75.5 111.5t-41.5 136.5t-12 154zM219 487 q0 -88 12 -154.5t43.5 -127.5t95 -94t156.5 -33q291 0 291 411q0 63 -6.5 118.5t-25.5 115.5t-50 102t-84.5 69.5t-124.5 27.5t-126 -26t-88.5 -67.5t-55 -99.5t-29.5 -116.5t-8 -125.5z" />
<glyph unicode="p" horiz-adv-x="1017" d="M121 -430v1427h106q0 -8 2 -49t2 -49l9 -6q68 54 150 85.5t163 31.5q80 0 142.5 -25.5t103.5 -69.5t67.5 -107.5t37.5 -135t11 -156.5q0 -115 -21.5 -208.5t-66 -167t-121.5 -114t-182 -40.5q-171 0 -291 75v-491h-112zM233 158q47 -33 126 -57.5t151 -24.5 q132 0 210.5 104.5t78.5 339.5q0 213 -71.5 303t-205.5 90q-66 0 -153.5 -36.5t-135.5 -83.5v-635z" />
<glyph unicode="q" horiz-adv-x="1019" d="M102 481q0 91 12.5 167.5t42.5 145t77 116t118.5 75t163.5 27.5q199 0 381 -82v-1360h-113v264q0 153 2 229l-12 9q-168 -90 -303 -90q-83 0 -147 24.5t-105.5 67t-68 106.5t-37.5 137t-11 164zM217 504q0 -122 18.5 -206.5t54 -132.5t82 -68.5t109.5 -20.5q130 0 301 94 v698q-123 52 -258 52q-301 0 -307 -416z" />
<glyph unicode="r" horiz-adv-x="643" d="M143 0v997h115q0 -9 -3 -65.5t-3 -65.5l10 -4q69 60 167 109t161 49q41 0 41 -39q0 -19 -12 -55.5t-27 -57.5q-34 -3 -169 -31t-163 -32v-805h-117z" />
<glyph unicode="s" horiz-adv-x="876" d="M86 61l39 82q138 -67 295 -67q117 0 188.5 45.5t71.5 140.5q0 34 -14 63t-33.5 48t-55.5 37.5t-62.5 29t-72.5 25.5t-71.5 24t-65.5 25.5t-63 30.5t-50.5 35.5t-42 45t-24.5 55t-10 67.5q0 133 95.5 199.5t242.5 66.5q64 0 141 -15t137 -47q-30 -75 -35 -84 q-131 52 -245 52q-100 0 -163 -43t-63 -132q0 -36 21.5 -66t61 -52t71 -35t76.5 -27q146 -47 201 -77q129 -73 135 -209v-15q0 -139 -103.5 -208.5t-267.5 -69.5q-92 0 -182 19t-152 56z" />
<glyph unicode="t" horiz-adv-x="681" d="M53 909v64l148 35l37 200l73 13v-224h295v-88h-297v-657q0 -82 32 -124t118 -42q71 0 190 35l19 -78q-112 -51 -232 -51q-239 0 -239 225v692h-144z" />
<glyph unicode="u" horiz-adv-x="985" d="M121 287v710h115v-675q0 -52 3 -85.5t14 -67.5t31 -52.5t55.5 -30.5t86.5 -12q68 0 158.5 37.5t167.5 105.5l-2 780q16 0 57 1t57 1v-999h-112v121l-7 4q-96 -84 -187 -114.5t-159 -30.5q-57 0 -101 10.5t-73 26t-49.5 42.5t-31 50t-16 59t-6.5 59t-1 60z" />
<glyph unicode="v" horiz-adv-x="866" d="M25 995h116q23 -72 92 -281t105 -327q87 -283 90 -291h10q5 16 21 69.5t35.5 117t37.5 118.5q20 63 94 287t99 307h119q-41 -118 -111 -320.5t-127 -367t-108 -307.5h-140q-34 100 -150 449t-183 546z" />
<glyph unicode="w" horiz-adv-x="1404" d="M25 997h114l158 -575l78 -309h8l88 325l162 559h115l190 -604l82 -280h10l72 286l162 598h116l-286 -997h-131l-181 563l-88 301h-8l-78 -289l-168 -575h-133z" />
<glyph unicode="x" horiz-adv-x="831" d="M14 0q38 60 153 242.5t179 281.5q-18 29 -299 473h129l238 -395q41 65 119.5 197.5t119.5 197.5h127q-46 -73 -147.5 -229.5t-153.5 -239.5q67 -103 188.5 -293.5t149.5 -234.5h-131l-272 451q-159 -263 -277 -451h-123z" />
<glyph unicode="y" horiz-adv-x="888" d="M-2 -414l18 86q110 -22 164 -22q65 0 102.5 27.5t67.5 119.5l68 207h-60q-33 107 -169.5 521t-155.5 472h112q16 -52 102 -320t103 -327l86 -274h8q3 10 15 48.5t32.5 105.5t38.5 124q33 101 105 329.5t100 313.5h117q-22 -66 -111.5 -342t-170.5 -523.5t-113 -340.5 q-36 -116 -94.5 -175.5t-157.5 -59.5q-4 0 -20.5 1t-26.5 1.5t-30.5 2.5t-38 5t-42 8t-49.5 12z" />
<glyph unicode="z" horiz-adv-x="823" d="M29 0v80l596 819l-7 8h-534v90h684v-86l-592 -813l4 -10l608 2v-90h-759z" />
<glyph unicode="{" horiz-adv-x="505" d="M61 573v70q140 25 140 229v299q0 263 157 263h97v-88h-47q-99 0 -99 -132v-348q0 -216 -116 -256q33 -17 55 -40t34 -46t18 -59.5t7.5 -66t1.5 -81.5v-440q0 -64 17.5 -96.5t72.5 -32.5h56v-86h-93q-161 0 -161 211v473q0 39 -4.5 69.5t-17.5 65.5t-43 59t-75 33z" />
<glyph unicode="|" horiz-adv-x="454" d="M178 -281v1711h90v-1711h-90z" />
<glyph unicode="}" horiz-adv-x="505" d="M57 -252h56q53 0 70.5 32.5t17.5 96.5v440q0 127 20 189.5t98 103.5q-118 40 -118 256v348q0 132 -99 132h-45v88h95q157 0 157 -263v-299q0 -204 140 -229v-70q-45 -9 -75 -33t-43 -59t-17.5 -65.5t-4.5 -69.5v-473q0 -211 -162 -211h-90v86z" />
<glyph unicode="~" d="M145 543q69 147 187 147q65 0 240.5 -43t224.5 -43l116 88l50 -37q-64 -147 -181 -147q-80 0 -244.5 43t-218.5 43l-122 -90z" />
<glyph unicode="&#xa1;" horiz-adv-x="423" d="M129 924q0 37 26.5 63.5t63.5 26.5q34 0 60 -27t26 -63q0 -35 -25.5 -60.5t-62.5 -25.5q-35 0 -61.5 25.5t-26.5 60.5zM160 -428l6 584l16 497h74q10 -300 14 -561q0 -14 2 -260t2 -260h-114z" />
<glyph unicode="&#xa2;" d="M168 483q0 65 9 127.5t34.5 134t66.5 126t111.5 94.5t161.5 49v166h72v-164q148 -3 262 -51l-31 -86q-114 41 -231 41v-840q116 2 270 67l31 -79q-132 -71 -301 -80v-166h-72v166q-383 22 -383 495zM287 492q0 -85 13 -152.5t42 -124t81.5 -91t127.5 -42.5v831 q-131 -21 -197.5 -132t-66.5 -289z" />
<glyph unicode="&#xa3;" d="M106 0l3 92q150 63 163 371l11 188h-144v82h148q10 175 10 238q5 86 27 155.5t64.5 125.5t115.5 87t172 31q85 0 173.5 -16.5t145.5 -42.5l-34 -90q-132 51 -279 51q-79 0 -132.5 -22t-82.5 -66t-42 -95.5t-17 -125.5l-11 -230h400v-82h-406q0 -74 -8 -190 q-12 -283 -121 -369h719v-92h-875z" />
<glyph unicode="&#xa4;" horiz-adv-x="1081" d="M111 262l131 127q-84 102 -84 236q0 143 84 239l-129 131l57 60l131 -129q108 84 240 84q122 0 237 -84l131 129l60 -62l-133 -127q84 -107 84 -237q0 -126 -84 -240q27 -27 135 -123l-62 -65l-133 129q-99 -82 -235 -82q-134 0 -238 82l-133 -131zM244 627 q0 -123 86.5 -209t208.5 -86q120 0 206 86t86 209q0 120 -85.5 206.5t-206.5 86.5t-208 -86.5t-87 -206.5z" />
<glyph unicode="&#xa5;" d="M90 1358h123q14 -30 201 -416l125 -254h6q12 21 37.5 71.5t55 109.5l36.5 73l207 416h120q-20 -40 -177 -337.5t-193 -371.5h313v-65h-803v65h310q-31 65 -180.5 355t-180.5 354zM141 420v65h803v-65h-346v-420h-117v420h-340z" />
<glyph unicode="&#xa6;" horiz-adv-x="454" d="M178 -281v791h90v-791h-90zM178 713v717h90v-717h-90z" />
<glyph unicode="&#xa7;" horiz-adv-x="933" d="M121 655q0 163 160 275q-71 49 -102.5 100.5t-31.5 116.5q0 143 99 221t260 78q146 0 285 -47l-29 -84q-133 43 -258 43q-66 0 -121 -19.5t-93 -67.5t-38 -118q0 -22 8 -43.5t19.5 -38t33.5 -34.5t40 -30.5t49 -29t50.5 -25.5t55.5 -26t53 -25q132 -64 193 -130.5 t61 -158.5q0 -142 -141 -266q91 -58 124 -125t33 -123q0 -104 -56 -176.5t-142 -104.5t-193 -32q-146 0 -299 49l25 82q151 -47 276 -47q126 0 203.5 57.5t77.5 159.5q0 80 -56.5 134t-160.5 99q-23 11 -65.5 29.5t-68.5 29.5t-63.5 30.5t-61 35.5t-50 40t-41.5 48t-25 55.5 t-10 67.5zM225 678q0 -47 21 -84t63 -65t82.5 -47.5t104 -46.5t102.5 -48q57 53 87 109.5t30 101.5q0 21 -5.5 40t-12 34.5t-22.5 32.5t-28 29t-37 28t-40 25.5t-48.5 26t-50.5 25t-56.5 27t-58.5 27.5q-58 -47 -94.5 -105.5t-36.5 -109.5z" />
<glyph unicode="&#xa8;" horiz-adv-x="958" d="M221 1239q0 30 22 52t52 22q34 0 56 -21t22 -53q0 -31 -22 -51.5t-56 -20.5q-31 0 -52.5 20.5t-21.5 51.5zM557 1239q0 31 21.5 52.5t50.5 21.5q33 0 55.5 -21t22.5 -53q0 -31 -23 -51.5t-55 -20.5q-31 0 -51.5 20.5t-20.5 51.5z" />
<glyph unicode="&#xa9;" horiz-adv-x="1695" d="M111 684q0 149 58.5 284.5t157.5 233.5t236.5 156.5t288.5 58.5q201 0 373 -98.5t273 -267.5t101 -367q0 -200 -101 -370t-273 -268.5t-373 -98.5q-151 0 -288.5 58t-236.5 157t-157.5 235.5t-58.5 286.5zM178 684q0 -181 91 -334.5t246 -242.5t337 -89q139 0 264 52.5 t215 141.5t142.5 212.5t52.5 259.5t-52.5 259.5t-142.5 212.5t-215 141.5t-264 52.5q-182 0 -337 -89t-246 -242.5t-91 -334.5zM442 668q0 69 11 136t41.5 139.5t77 127t124.5 90t178 35.5q143 0 250 -39l-20 -76q-105 37 -223 37q-168 0 -256 -120.5t-88 -331.5 q0 -96 15 -168.5t52 -135t107 -96t172 -33.5q133 0 239 35l19 -69q-46 -20 -125 -32.5t-150 -12.5q-424 0 -424 514z" />
<glyph unicode="&#xaa;" horiz-adv-x="679" d="M39 725q0 90 60.5 136.5t160.5 56.5q66 8 207 12v45q0 88 -30.5 123t-114.5 35q-98 0 -216 -43q-3 8 -8 22t-9 25.5t-7 21.5q127 53 260 53q111 0 166 -50.5t55 -168.5v-366h94l7 -66q-55 -22 -117 -22q-37 0 -55.5 18t-24.5 57q-108 -79 -225 -79q-58 0 -99.5 17.5 t-63 46.5t-31 60t-9.5 66zM139 733q0 -121 131 -121q42 0 95.5 22t101.5 58v170q-65 -2 -172 -10q-74 -6 -115 -36t-41 -83z" />
<glyph unicode="&#xab;" horiz-adv-x="825" d="M131 340v74l289 309l49 -41l-219 -305l221 -305l-49 -39zM389 340v74l289 309l51 -41l-221 -305l223 -305l-51 -39z" />
<glyph unicode="&#xac;" d="M166 565v88h766v-434h-92v346h-674z" />
<glyph unicode="&#xad;" horiz-adv-x="708" d="M106 477v103h496v-103h-496z" />
<glyph unicode="&#xae;" horiz-adv-x="1173" d="M92 969q0 131 64.5 241.5t176.5 175t245 64.5q131 0 242.5 -64.5t177 -175t65.5 -241.5t-65.5 -241t-177 -173t-242.5 -63q-133 0 -244.5 62t-176.5 171.5t-65 243.5zM152 969q0 -177 123 -299.5t303 -122.5t303 121t123 301q0 115 -56.5 213t-154.5 155.5t-215 57.5 q-176 0 -301 -125.5t-125 -300.5zM412 676v596h190q85 0 134.5 -41t49.5 -123q0 -49 -28 -95t-88 -67l125 -270h-76l-119 262h-119v-262h-69zM481 993h119q115 0 115 113q0 58 -32.5 84.5t-82.5 26.5h-119v-224z" />
<glyph unicode="&#xaf;" horiz-adv-x="997" d="M174 1221v96h635v-96h-635z" />
<glyph unicode="&#xb0;" horiz-adv-x="694" d="M92 1110q0 104 77 182t183 78q105 0 179.5 -78t74.5 -182q0 -107 -74 -180.5t-180 -73.5q-119 0 -189.5 72t-70.5 182zM168 1108q0 -72 53.5 -125t126.5 -53q72 0 127 53t55 125q0 75 -55 130.5t-127 55.5q-73 0 -126.5 -55.5t-53.5 -130.5z" />
<glyph unicode="&#xb1;" d="M160 18v84h776v-84h-776zM166 561v92h338v328h92v-328h336v-92h-336v-338h-92v338h-338z" />
<glyph unicode="&#xb2;" horiz-adv-x="710" d="M39 729v68q77 64 127 107t117 107t106 112.5t67.5 103t28.5 98.5q0 72 -48 106.5t-128 34.5q-107 0 -227 -69l-39 67q128 86 276 86q122 0 196.5 -54.5t74.5 -162.5q0 -64 -33.5 -133t-105.5 -144.5t-113 -113.5t-126 -109q-19 -16 -28 -24q26 0 219.5 -1t217.5 -1v-78 h-582z" />
<glyph unicode="&#xb3;" horiz-adv-x="710" d="M39 766q17 42 27 74q128 -39 239 -39q101 0 163 47.5t62 138.5q0 76 -64.5 116t-172.5 40q-47 0 -94 -6l-25 57q46 42 140 129.5t141 130.5q-2 2 -2 4q-64 0 -189.5 1t-187.5 1v80h516q3 -17 16 -59q-47 -42 -139.5 -128.5t-142.5 -133.5h18q127 0 206 -59.5t79 -174.5 q0 -124 -91.5 -195t-222.5 -71q-166 0 -276 47z" />
<glyph unicode="&#xb4;" horiz-adv-x="983" d="M344 1157l229 316l93 -82l-269 -279z" />
<glyph unicode="&#xb6;" horiz-adv-x="1005" d="M104 1065q0 146 100.5 251t246.5 105h370v-1792h-90v1702h-151l2 -1702h-95v1092h-36q-149 0 -248 99.5t-99 244.5z" />
<glyph unicode="&#xb7;" horiz-adv-x="368" d="M98 580q0 36 27.5 62t64.5 26q36 0 63.5 -26t27.5 -62t-28.5 -64.5t-62.5 -28.5q-36 0 -64 28.5t-28 64.5z" />
<glyph unicode="&#xb8;" horiz-adv-x="993" d="M381 -436q129 10 192.5 45.5t63.5 91.5q0 43 -43 65.5t-111 24.5q-23 2 -61 2l-23 33q20 25 56.5 72t66.5 84t58 69l47 -31q-78 -93 -127 -159q108 -2 171.5 -39t63.5 -113q0 -88 -89 -145.5t-263 -57.5q0 9 -1 28.5t-1 29.5z" />
<glyph unicode="&#xb9;" horiz-adv-x="710" d="M100 1481l236 61h88v-813h-98v713l-211 -29z" />
<glyph unicode="&#xba;" horiz-adv-x="706" d="M61 870q0 68 16 127.5t49 110t92.5 80t139.5 29.5q65 0 116 -20t82.5 -52.5t52 -78t28.5 -93t8 -101.5q0 -67 -14 -122.5t-45.5 -105.5t-92 -78.5t-145.5 -28.5q-80 0 -138 27t-89.5 75.5t-45.5 105t-14 125.5zM160 870q0 -55 7.5 -96t27.5 -79t61 -58.5t102 -20.5 q189 0 189 254q0 50 -7.5 92.5t-26.5 85.5t-58.5 68t-96.5 25t-98 -24t-61.5 -65.5t-29.5 -85.5t-9 -96z" />
<glyph unicode="&#xbb;" horiz-adv-x="825" d="M113 72l221 305l-219 305l51 41l289 -309v-74l-291 -307zM373 72l221 305l-221 305l51 41l289 -309v-74l-291 -307z" />
<glyph unicode="&#xbc;" horiz-adv-x="1638" d="M166 1296l235 62h88v-813h-98v712l-211 -28zM442 -47l588 1479h82l-584 -1479h-86zM819 229v70q34 44 218.5 262.5t211.5 251.5h97v-506h127v-78h-127v-229h-99v229h-428zM930 307h319v381h-6z" />
<glyph unicode="&#xbd;" horiz-adv-x="1638" d="M147 1296l236 62h88v-813h-98v712l-211 -28zM389 -47l588 1479h82l-584 -1479h-86zM909 0v70q76 63 124 104t116.5 105.5t108 113t69 104t29.5 99.5q0 72 -48 106.5t-128 34.5q-108 0 -228 -69l-39 67q128 86 277 86q122 0 196 -55t74 -164q0 -64 -35.5 -133.5t-100 -139 t-116.5 -117.5t-124 -108q-7 -5 -10.5 -8t-9 -7.5t-9.5 -8.5h436v-80h-582z" />
<glyph unicode="&#xbe;" horiz-adv-x="1638" d="M92 582q18 46 27 73q128 -39 239 -39q101 0 163.5 48t62.5 139q0 76 -65 115.5t-173 39.5q-48 0 -94 -6l-25 58q46 42 140 129.5t141 130.5q-2 2 -2 4q-64 0 -189.5 1t-187.5 1v80h516q2 -10 17 -60q-48 -44 -143 -132.5t-140 -129.5h18q127 0 206 -59t79 -174 q0 -124 -91 -195t-222 -71q-167 0 -277 47zM520 -47l588 1479h82l-584 -1479h-86zM893 229v70q34 44 218.5 262.5t211.5 251.5h96v-506h127v-78h-127v-229h-98v229h-428zM1004 307h319v381h-6z" />
<glyph unicode="&#xbf;" horiz-adv-x="868" d="M74 -178q0 159 184 305q149 117 209.5 195.5t60.5 166.5q0 59 -16 150l96 16q23 -115 23 -180q0 -99 -62.5 -188.5t-201.5 -206.5q-87 -67 -127.5 -121.5t-40.5 -124.5q0 -93 67.5 -136.5t182.5 -43.5q152 0 327 55l25 -88q-181 -65 -355 -65q-180 0 -274.5 69.5 t-97.5 196.5zM434 926q0 36 26 62t60 26q37 0 63.5 -25.5t26.5 -62.5q0 -35 -26.5 -60.5t-61.5 -25.5t-61.5 25.5t-26.5 60.5z" />
<glyph unicode="&#xc0;" horiz-adv-x="1128" d="M29 0l456 1399h156q86 -261 241 -740t214 -659h-125l-123 383h-576q-19 -60 -57.5 -188t-60.5 -195h-125zM303 1755l90 84l232 -313l-58 -47zM305 477h514q-97 318 -186 592q-5 19 -68 225h-6l-70 -225z" />
<glyph unicode="&#xc1;" horiz-adv-x="1128" d="M29 0l456 1399h156q86 -261 241 -740t214 -659h-125l-123 383h-576q-19 -60 -57.5 -188t-60.5 -195h-125zM305 477h514q-97 318 -186 592q-5 19 -68 225h-6l-70 -225zM512 1524l231 313l93 -82l-267 -276z" />
<glyph unicode="&#xc2;" horiz-adv-x="1128" d="M29 0l456 1399h156q86 -261 241 -740t214 -659h-125l-123 383h-576q-19 -60 -57.5 -188t-60.5 -195h-125zM229 1511l289 269h88l291 -264l-39 -46l-297 195l-295 -197zM305 477h514q-97 318 -186 592q-5 19 -68 225h-6l-70 -225z" />
<glyph unicode="&#xc3;" horiz-adv-x="1128" d="M29 0l456 1399h156q86 -261 241 -740t214 -659h-125l-123 383h-576q-19 -60 -57.5 -188t-60.5 -195h-125zM258 1571q22 62 65 99.5t95 37.5q48 0 154.5 -38t142.5 -38l106 82l43 -33q-23 -62 -63 -100.5t-90 -38.5q-55 0 -160.5 40t-138.5 40l-109 -82zM305 477h514 q-97 318 -186 592q-5 19 -68 225h-6l-70 -225z" />
<glyph unicode="&#xc4;" horiz-adv-x="1128" d="M29 0l456 1399h156q86 -261 241 -740t214 -659h-125l-123 383h-576q-19 -60 -57.5 -188t-60.5 -195h-125zM305 477h514q-97 318 -186 592q-5 19 -68 225h-6l-70 -225zM319 1565q0 29 22 50t52 21q33 0 55.5 -20.5t22.5 -50.5q0 -32 -22.5 -53t-55.5 -21q-31 0 -52.5 21 t-21.5 53zM655 1565q0 29 21 50t49 21q34 0 57 -20t23 -51q0 -32 -23 -53t-57 -21q-30 0 -50 21t-20 53z" />
<glyph unicode="&#xc5;" horiz-adv-x="1128" d="M29 0l456 1399h156q86 -261 241 -740t214 -659h-125l-123 383h-576q-19 -60 -57.5 -188t-60.5 -195h-125zM305 477h514q-97 318 -186 592q-5 19 -68 225h-6l-70 -225zM362 1638q0 79 58 137t143 58q84 0 139.5 -57t55.5 -138q0 -82 -56 -138t-139 -56q-88 0 -144.5 56.5 t-56.5 137.5zM436 1632q0 -55 34 -89t93 -34q55 0 89 34.5t34 88.5q0 56 -34 93.5t-89 37.5q-58 0 -92.5 -36.5t-34.5 -94.5z" />
<glyph unicode="&#xc6;" horiz-adv-x="1855" d="M20 0l885 1399h830v-92h-641v-521h546v-92h-546v-600h675v-94h-796v412h-561l-260 -412h-132zM467 510h506v786h-8z" />
<glyph unicode="&#xc7;" horiz-adv-x="1165" d="M123 690q0 98 15 192t56 194.5t104 174.5t169 122t242 48q210 0 348 -55l-29 -92q-148 49 -309 49q-237 0 -354 -167.5t-117 -467.5q0 -104 10.5 -186.5t41.5 -163t82 -134.5t136.5 -87t200.5 -33q66 0 165 12t175 35l24 -86q-65 -25 -167.5 -41t-196.5 -18 q-52 -64 -113 -144q108 -2 172 -38.5t64 -112.5q0 -88 -89.5 -145.5t-263.5 -57.5q0 9 -1 28t-1 29q129 10 192.5 46t63.5 92q0 43 -42.5 65.5t-110.5 24.5q-23 2 -62 2l-22 32q18 23 65.5 86t75.5 95q-114 6 -202.5 41.5t-148.5 95.5t-99 146t-56.5 189t-17.5 230z" />
<glyph unicode="&#xc8;" horiz-adv-x="1087" d="M164 0v1399h805v-94h-684v-517h585v-94h-585v-598h719v-96h-840zM360 1755l91 84l231 -313l-57 -47z" />
<glyph unicode="&#xc9;" horiz-adv-x="1087" d="M164 0v1399h805v-94h-684v-517h585v-94h-585v-598h719v-96h-840zM502 1524l231 313l92 -82l-266 -276z" />
<glyph unicode="&#xca;" horiz-adv-x="1087" d="M164 0v1399h805v-94h-684v-517h585v-94h-585v-598h719v-96h-840zM231 1524l289 268h88l291 -264l-39 -45l-297 194l-295 -196z" />
<glyph unicode="&#xcb;" horiz-adv-x="1087" d="M164 0v1399h805v-94h-684v-517h585v-94h-585v-598h719v-96h-840zM336 1571q0 29 22 50t52 21q33 0 55 -20t22 -51q0 -32 -22 -53t-55 -21q-31 0 -52.5 21t-21.5 53zM672 1571q0 29 20.5 50t48.5 21q34 0 57 -20t23 -51q0 -32 -23 -53t-57 -21q-29 0 -49 21t-20 53z" />
<glyph unicode="&#xcc;" horiz-adv-x="487" d="M-14 1755l90 84l231 -313l-57 -47zM184 0v1401h119v-1401h-119z" />
<glyph unicode="&#xcd;" horiz-adv-x="487" d="M184 0v1401h119v-1401h-119zM184 1524l232 313l92 -82l-266 -276z" />
<glyph unicode="&#xce;" horiz-adv-x="487" d="M-88 1513l289 269h88l291 -264l-39 -45l-297 194l-295 -197zM184 0v1401h119v-1401h-119z" />
<glyph unicode="&#xcf;" horiz-adv-x="487" d="M6 1573q0 29 22.5 50.5t51.5 21.5q32 0 55 -20.5t23 -51.5q0 -32 -22.5 -53t-55.5 -21q-31 0 -52.5 21t-21.5 53zM184 0v1401h119v-1401h-119zM342 1573q0 29 21 50.5t49 21.5q34 0 57 -20.5t23 -51.5q0 -32 -23 -53t-57 -21q-30 0 -50 21t-20 53z" />
<glyph unicode="&#xd0;" horiz-adv-x="1275" d="M33 690v90h131v621h430q559 0 559 -699q0 -702 -580 -702h-409v690h-131zM287 98h270q29 0 49 1t59.5 6.5t69 15.5t69 31t69 49.5t60.5 74t50.5 102.5t32 136.5t12.5 173.5q0 123 -18.5 221.5t-47 162t-71.5 109.5t-81 69t-88 36.5t-81 16t-70 2.5h-284v-525h370v-90 h-370v-592z" />
<glyph unicode="&#xd1;" horiz-adv-x="1347" d="M164 0v1399h123q71 -107 302 -465t304 -475l164 -254h8v1194h119l-2 -1399h-117l-612 948l-164 264q-1 0 -4 -1t-4 -1v-1210h-117zM375 1569q22 62 65 99.5t95 37.5q48 0 154 -38t142 -38l107 82l43 -33q-23 -62 -63.5 -100.5t-90.5 -38.5q-55 0 -160 40t-139 40 l-108 -82z" />
<glyph unicode="&#xd2;" horiz-adv-x="1384" d="M123 688q0 119 18.5 223.5t61.5 199.5t108.5 162.5t166 107.5t227.5 40q128 0 227 -40.5t160.5 -107t100.5 -162.5t54 -197t15 -220q0 -152 -35.5 -280.5t-104 -224t-175.5 -149t-242 -54.5q-156 0 -269 48t-181 141t-100 219.5t-32 293.5zM248 684q0 -301 108.5 -452.5 t341.5 -151.5q109 0 194 47.5t137.5 131t79 192.5t26.5 237q0 639 -430 639q-457 0 -457 -643zM446 1755l91 84l231 -313l-57 -47z" />
<glyph unicode="&#xd3;" horiz-adv-x="1384" d="M123 688q0 119 18.5 223.5t61.5 199.5t108.5 162.5t166 107.5t227.5 40q128 0 227 -40.5t160.5 -107t100.5 -162.5t54 -197t15 -220q0 -152 -35.5 -280.5t-104 -224t-175.5 -149t-242 -54.5q-156 0 -269 48t-181 141t-100 219.5t-32 293.5zM248 684q0 -301 108.5 -452.5 t341.5 -151.5q109 0 194 47.5t137.5 131t79 192.5t26.5 237q0 639 -430 639q-457 0 -457 -643zM631 1524l231 313l92 -82l-266 -276z" />
<glyph unicode="&#xd4;" horiz-adv-x="1384" d="M123 688q0 119 18.5 223.5t61.5 199.5t108.5 162.5t166 107.5t227.5 40q128 0 227 -40.5t160.5 -107t100.5 -162.5t54 -197t15 -220q0 -152 -35.5 -280.5t-104 -224t-175.5 -149t-242 -54.5q-156 0 -269 48t-181 141t-100 219.5t-32 293.5zM248 684q0 -301 108.5 -452.5 t341.5 -151.5q109 0 194 47.5t137.5 131t79 192.5t26.5 237q0 639 -430 639q-457 0 -457 -643zM375 1524l289 268h88l290 -264l-38 -45l-297 194l-295 -196z" />
<glyph unicode="&#xd5;" horiz-adv-x="1384" d="M123 688q0 119 18.5 223.5t61.5 199.5t108.5 162.5t166 107.5t227.5 40q128 0 227 -40.5t160.5 -107t100.5 -162.5t54 -197t15 -220q0 -152 -35.5 -280.5t-104 -224t-175.5 -149t-242 -54.5q-156 0 -269 48t-181 141t-100 219.5t-32 293.5zM248 684q0 -301 108.5 -452.5 t341.5 -151.5q109 0 194 47.5t137.5 131t79 192.5t26.5 237q0 639 -430 639q-457 0 -457 -643zM401 1595q22 62 65 100t95 38q48 0 154.5 -38t142.5 -38l107 82l43 -33q-23 -62 -63.5 -100.5t-90.5 -38.5q-55 0 -160.5 40t-138.5 40l-109 -82z" />
<glyph unicode="&#xd6;" horiz-adv-x="1384" d="M123 688q0 119 18.5 223.5t61.5 199.5t108.5 162.5t166 107.5t227.5 40q128 0 227 -40.5t160.5 -107t100.5 -162.5t54 -197t15 -220q0 -152 -35.5 -280.5t-104 -224t-175.5 -149t-242 -54.5q-156 0 -269 48t-181 141t-100 219.5t-32 293.5zM248 684q0 -301 108.5 -452.5 t341.5 -151.5q109 0 194 47.5t137.5 131t79 192.5t26.5 237q0 639 -430 639q-457 0 -457 -643zM461 1593q0 29 22.5 50.5t51.5 21.5q32 0 54.5 -20.5t22.5 -51.5q0 -32 -22 -52.5t-55 -20.5q-31 0 -52.5 20.5t-21.5 52.5zM797 1593q0 29 20.5 50.5t48.5 21.5q34 0 57 -20.5 t23 -51.5q0 -32 -23 -52.5t-57 -20.5q-30 0 -49.5 20.5t-19.5 52.5z" />
<glyph unicode="&#xd7;" horiz-adv-x="1118" d="M233 326l261 262l-261 260l64 63l260 -260l248 258l65 -67l-247 -258l260 -256l-66 -66l-256 260l-262 -262z" />
<glyph unicode="&#xd8;" horiz-adv-x="1343" d="M100 -10l136 180q-134 172 -134 518q0 119 18.5 223.5t61.5 199.5t108.5 162.5t166 107.5t227.5 40q239 0 375 -139l104 141h86l-143 -192q135 -185 135 -537q0 -152 -35.5 -280.5t-104 -224t-175.5 -149t-242 -54.5q-265 0 -405 137l-99 -133h-80zM227 684 q0 -272 86 -412l676 918q-110 137 -305 137q-457 0 -457 -643zM350 213q106 -133 328 -133q109 0 193.5 47.5t137 131t79 192.5t26.5 237q0 283 -90 442z" />
<glyph unicode="&#xd9;" horiz-adv-x="1339" d="M156 498v903h116l2 -901q0 -207 101 -313.5t295 -106.5q193 0 294 106t101 314v901h121v-903q0 -236 -131.5 -374t-386.5 -138q-512 0 -512 512zM436 1755l90 84l232 -313l-58 -47z" />
<glyph unicode="&#xda;" horiz-adv-x="1339" d="M156 498v903h116l2 -901q0 -207 101 -313.5t295 -106.5q193 0 294 106t101 314v901h121v-903q0 -236 -131.5 -374t-386.5 -138q-512 0 -512 512zM582 1524l231 313l92 -82l-266 -276z" />
<glyph unicode="&#xdb;" horiz-adv-x="1339" d="M156 498v903h116l2 -901q0 -207 101 -313.5t295 -106.5q193 0 294 106t101 314v901h121v-903q0 -236 -131.5 -374t-386.5 -138q-512 0 -512 512zM319 1522l302 264h90l303 -260l-41 -43l-307 190l-308 -192z" />
<glyph unicode="&#xdc;" horiz-adv-x="1339" d="M156 498v903h116l2 -901q0 -207 101 -313.5t295 -106.5q193 0 294 106t101 314v901h121v-903q0 -236 -131.5 -374t-386.5 -138q-512 0 -512 512zM428 1575q0 29 22.5 50.5t51.5 21.5q32 0 55 -20.5t23 -51.5q0 -32 -22.5 -53t-55.5 -21q-31 0 -52.5 21t-21.5 53z M764 1575q0 29 21 50.5t49 21.5q34 0 56.5 -20.5t22.5 -51.5q0 -32 -22.5 -53t-56.5 -21q-30 0 -50 21t-20 53z" />
<glyph unicode="&#xdd;" horiz-adv-x="1024" d="M25 1401h129l219 -416l129 -256h8l133 254l227 418h127l-428 -770v-631h-127v623zM434 1503l232 314l92 -82l-266 -277z" />
<glyph unicode="&#xde;" horiz-adv-x="1075" d="M164 0v1401h121v-275h311q187 0 303.5 -102t116.5 -295q0 -54 -11 -107t-39.5 -109.5t-72.5 -98.5t-116 -69.5t-163 -27.5h-329v-317h-121zM285 412h315q57 0 105.5 15t92 49t68.5 97t25 150q0 150 -83 228.5t-214 78.5h-309v-618z" />
<glyph unicode="&#xdf;" horiz-adv-x="1150" d="M57 797v84h150v235q0 42 8.5 84.5t32.5 92t62 87.5t104 63t151 25q73 0 132 -16.5t95 -42.5t60 -60t33.5 -66t9.5 -64q0 -55 -23 -105t-56.5 -86.5t-66.5 -69.5t-56 -68.5t-23 -70.5q0 -50 48 -107.5t134 -125.5q40 -32 57 -46.5t51 -45.5t50 -54.5t35.5 -57.5t27.5 -72 t8 -81q-2 -48 -20.5 -91.5t-54 -81.5t-98.5 -60.5t-146 -22.5q-71 0 -149.5 13.5t-131.5 33.5l29 91q148 -52 252 -52q95 0 149 47.5t54 118.5q0 19 -3.5 37.5t-7 33t-13.5 32t-15.5 28.5t-20.5 28.5t-20.5 25t-24 25t-23.5 22t-25.5 22.5t-23.5 21q-8 7 -39 35t-42.5 38 t-38 36t-38 40.5t-30 38.5t-26.5 42t-14.5 41t-6.5 44q0 42 23 84.5t56.5 78t66.5 70.5t56 74.5t23 77.5q0 18 -1.5 32.5t-13.5 43t-33 48t-66 35t-107 15.5q-116 0 -177 -73t-61 -183v-1118h-112v797h-150z" />
<glyph unicode="&#xe0;" horiz-adv-x="1036" d="M82 262q0 132 89 208t237 85l313 16v82q0 143 -48.5 201.5t-180.5 58.5q-143 0 -312 -59l-28 80q178 76 364 76q158 0 238 -76.5t80 -249.5v-594h135q0 -2 6 -67q-67 -33 -150 -33q-58 0 -82.5 28t-21.5 95q-2 2 -4 2q-56 -44 -110 -72t-101 -39t-73.5 -13.5t-61.5 -2.5 q-65 0 -116 17t-83 44.5t-53 64t-29 73t-8 75.5zM205 274q0 -100 51 -149t158 -49q136 0 307 141v272l-285 -16q-113 -4 -172 -56.5t-59 -142.5zM268 1391l92 84l232 -314l-57 -49z" />
<glyph unicode="&#xe1;" horiz-adv-x="1036" d="M82 262q0 132 89 208t237 85l313 16v82q0 143 -48.5 201.5t-180.5 58.5q-143 0 -312 -59l-28 80q178 76 364 76q158 0 238 -76.5t80 -249.5v-594h135q0 -2 6 -67q-67 -33 -150 -33q-58 0 -82.5 28t-21.5 95q-2 2 -4 2q-56 -44 -110 -72t-101 -39t-73.5 -13.5t-61.5 -2.5 q-65 0 -116 17t-83 44.5t-53 64t-29 73t-8 75.5zM205 274q0 -100 51 -149t158 -49q136 0 307 141v272l-285 -16q-113 -4 -172 -56.5t-59 -142.5zM412 1157l229 316l92 -82l-268 -279z" />
<glyph unicode="&#xe2;" horiz-adv-x="1036" d="M82 262q0 132 89 208t237 85l313 16v82q0 143 -48.5 201.5t-180.5 58.5q-143 0 -312 -59l-28 80q178 76 364 76q158 0 238 -76.5t80 -249.5v-594h135q0 -2 6 -67q-67 -33 -150 -33q-58 0 -82.5 28t-21.5 95q-2 2 -4 2q-56 -44 -110 -72t-101 -39t-73.5 -13.5t-61.5 -2.5 q-65 0 -116 17t-83 44.5t-53 64t-29 73t-8 75.5zM172 1147l287 274h88l291 -270l-37 -45l-297 201l-297 -203zM205 274q0 -100 51 -149t158 -49q136 0 307 141v272l-285 -16q-113 -4 -172 -56.5t-59 -142.5z" />
<glyph unicode="&#xe3;" horiz-adv-x="1036" d="M82 262q0 132 89 208t237 85l313 16v82q0 143 -48.5 201.5t-180.5 58.5q-143 0 -312 -59l-28 80q178 76 364 76q158 0 238 -76.5t80 -249.5v-594h135q0 -2 6 -67q-67 -33 -150 -33q-58 0 -82.5 28t-21.5 95q-2 2 -4 2q-56 -44 -110 -72t-101 -39t-73.5 -13.5t-61.5 -2.5 q-65 0 -116 17t-83 44.5t-53 64t-29 73t-8 75.5zM197 1210q22 63 64.5 100.5t94.5 37.5q48 0 154.5 -38t142.5 -38l107 82l43 -33q-23 -62 -63.5 -100.5t-90.5 -38.5q-55 0 -160.5 40t-138.5 40l-108 -82zM205 274q0 -100 51 -149t158 -49q136 0 307 141v272l-285 -16 q-113 -4 -172 -56.5t-59 -142.5z" />
<glyph unicode="&#xe4;" horiz-adv-x="1036" d="M82 262q0 132 89 208t237 85l313 16v82q0 143 -48.5 201.5t-180.5 58.5q-143 0 -312 -59l-28 80q178 76 364 76q158 0 238 -76.5t80 -249.5v-594h135q0 -2 6 -67q-67 -33 -150 -33q-58 0 -82.5 28t-21.5 95q-2 2 -4 2q-56 -44 -110 -72t-101 -39t-73.5 -13.5t-61.5 -2.5 q-65 0 -116 17t-83 44.5t-53 64t-29 73t-8 75.5zM205 274q0 -100 51 -149t158 -49q136 0 307 141v272l-285 -16q-113 -4 -172 -56.5t-59 -142.5zM268 1239q0 30 22 52t52 22q34 0 56 -21t22 -53q0 -31 -22 -51.5t-56 -20.5q-31 0 -52.5 20.5t-21.5 51.5zM604 1239 q0 31 21.5 52.5t50.5 21.5q33 0 55.5 -21t22.5 -53q0 -31 -23 -51.5t-55 -20.5q-31 0 -51.5 20.5t-20.5 51.5z" />
<glyph unicode="&#xe5;" horiz-adv-x="1036" d="M82 262q0 132 89 208t237 85l313 16v82q0 143 -48.5 201.5t-180.5 58.5q-143 0 -312 -59l-28 80q178 76 364 76q158 0 238 -76.5t80 -249.5v-594h135q0 -2 6 -67q-67 -33 -150 -33q-58 0 -82.5 28t-21.5 95q-2 2 -4 2q-56 -44 -110 -72t-101 -39t-73.5 -13.5t-61.5 -2.5 q-65 0 -116 17t-83 44.5t-53 64t-29 73t-8 75.5zM205 274q0 -100 51 -149t158 -49q136 0 307 141v272l-285 -16q-113 -4 -172 -56.5t-59 -142.5zM324 1317q0 79 57.5 136.5t142.5 57.5q84 0 139.5 -56.5t55.5 -137.5q0 -82 -56 -138.5t-139 -56.5q-87 0 -143.5 57t-56.5 138 zM397 1311q0 -55 34 -89t93 -34q55 0 89 34.5t34 88.5q0 56 -34 93.5t-89 37.5q-58 0 -92.5 -36.5t-34.5 -94.5z" />
<glyph unicode="&#xe6;" horiz-adv-x="1591" d="M74 264q0 135 93 214t249 79h305v98q0 145 -53.5 204t-186.5 59q-137 0 -311 -62l-29 80q178 76 365 76q243 0 295 -197q104 199 338 199q78 0 140.5 -22t101 -53t66.5 -80.5t41 -88t20 -94t7.5 -78.5t0.5 -61v-60h-678q-4 -397 305 -397q86 0 156.5 17t158.5 57l31 -78 q-167 -90 -348 -90q-240 0 -342 155q-72 -55 -141.5 -89.5t-131 -47t-93 -15.5t-75.5 -3q-65 0 -116.5 18t-82 46t-50.5 66t-27.5 74t-7.5 74zM195 279q0 -205 211 -205q76 0 179 35t181 100q-45 104 -45 268h-287q-116 0 -177.5 -53.5t-61.5 -144.5zM840 557h565 q0 174 -61 270.5t-205 96.5q-268 0 -299 -367z" />
<glyph unicode="&#xe7;" horiz-adv-x="911" d="M100 483q0 69 10 135.5t39.5 141t75.5 129t126.5 91t185.5 36.5q162 0 280 -51l-31 -86q-115 41 -241 41q-160 0 -243 -115t-83 -313q0 -412 309 -412q77 0 144 16t153 51l31 -79q-138 -76 -315 -82q-47 -55 -97 -125q108 -2 172 -39t64 -113q0 -88 -89 -145.5 t-263 -57.5q0 9 -1 28.5t-1 29.5q129 10 192.5 45.5t63.5 91.5q0 43 -43 65.5t-111 24.5q-23 2 -61 2l-23 33l127 162q-371 31 -371 495z" />
<glyph unicode="&#xe8;" horiz-adv-x="995" d="M100 494q0 40 3.5 81t15 94t30 99.5t51 92.5t75 79t105 53.5t138.5 20.5q63 0 115.5 -13.5t89.5 -33.5t67 -53.5t48 -62.5t31 -72t19 -70.5t9.5 -69.5t3.5 -57v-45v-60h-682q-4 -399 307 -399q86 0 157.5 18t160.5 58l30 -78q-170 -90 -352 -90q-99 0 -174 27t-121.5 72 t-75.5 111.5t-40 138t-11 159.5zM221 559h570q0 84 -13.5 149t-44 115.5t-84 77.5t-129.5 27q-268 0 -299 -369zM272 1391l93 84l231 -314l-57 -49z" />
<glyph unicode="&#xe9;" horiz-adv-x="995" d="M100 494q0 40 3.5 81t15 94t30 99.5t51 92.5t75 79t105 53.5t138.5 20.5q63 0 115.5 -13.5t89.5 -33.5t67 -53.5t48 -62.5t31 -72t19 -70.5t9.5 -69.5t3.5 -57v-45v-60h-682q-4 -399 307 -399q86 0 157.5 18t160.5 58l30 -78q-170 -90 -352 -90q-99 0 -174 27t-121.5 72 t-75.5 111.5t-40 138t-11 159.5zM221 559h570q0 84 -13.5 149t-44 115.5t-84 77.5t-129.5 27q-268 0 -299 -369zM432 1157l230 316l92 -82l-269 -279z" />
<glyph unicode="&#xea;" horiz-adv-x="995" d="M100 494q0 40 3.5 81t15 94t30 99.5t51 92.5t75 79t105 53.5t138.5 20.5q63 0 115.5 -13.5t89.5 -33.5t67 -53.5t48 -62.5t31 -72t19 -70.5t9.5 -69.5t3.5 -57v-45v-60h-682q-4 -399 307 -399q86 0 157.5 18t160.5 58l30 -78q-170 -90 -352 -90q-99 0 -174 27t-121.5 72 t-75.5 111.5t-40 138t-11 159.5zM197 1133l286 274h88l291 -270l-37 -45l-297 200l-297 -202zM221 559h570q0 84 -13.5 149t-44 115.5t-84 77.5t-129.5 27q-268 0 -299 -369z" />
<glyph unicode="&#xeb;" horiz-adv-x="995" d="M100 494q0 40 3.5 81t15 94t30 99.5t51 92.5t75 79t105 53.5t138.5 20.5q63 0 115.5 -13.5t89.5 -33.5t67 -53.5t48 -62.5t31 -72t19 -70.5t9.5 -69.5t3.5 -57v-45v-60h-682q-4 -399 307 -399q86 0 157.5 18t160.5 58l30 -78q-170 -90 -352 -90q-99 0 -174 27t-121.5 72 t-75.5 111.5t-40 138t-11 159.5zM221 559h570q0 84 -13.5 149t-44 115.5t-84 77.5t-129.5 27q-268 0 -299 -369zM289 1239q0 31 21.5 52.5t51.5 21.5q34 0 56 -21t22 -53q0 -31 -22 -51.5t-56 -20.5q-31 0 -52 20.5t-21 51.5zM625 1239q0 31 21 52.5t50 21.5q33 0 55.5 -21 t22.5 -53q0 -31 -23 -51.5t-55 -20.5q-31 0 -51 20.5t-20 51.5z" />
<glyph unicode="&#xec;" horiz-adv-x="460" d="M-18 1391l92 84l231 -314l-57 -49zM172 0v997h115v-997h-115z" />
<glyph unicode="&#xed;" horiz-adv-x="460" d="M172 0v997h115v-997h-115zM176 1157l230 316l92 -82l-269 -279z" />
<glyph unicode="&#xee;" horiz-adv-x="460" d="M-104 1147l286 274h88l291 -270l-37 -45l-297 201l-297 -203zM172 0v997h115v-997h-115z" />
<glyph unicode="&#xef;" horiz-adv-x="460" d="M-14 1239q0 31 22 52.5t51 21.5q34 0 56 -21t22 -53q0 -31 -22 -51.5t-56 -20.5q-31 0 -52 20.5t-21 51.5zM172 0v997h115v-997h-115zM322 1239q0 31 21 52.5t50 21.5q33 0 55.5 -21t22.5 -53q0 -31 -23 -51.5t-55 -20.5q-31 0 -51 20.5t-20 51.5z" />
<glyph unicode="&#xf0;" horiz-adv-x="995" d="M84 438q0 67 14.5 133.5t47 130t79.5 111.5t117 77.5t154 29.5q150 0 276 -89q-55 187 -170 320l-188 -127l-39 53l182 123q-107 110 -248 191l39 69q168 -83 287 -205l172 115l39 -53l-164 -111q242 -276 236 -671q0 -48 -5 -94t-17.5 -102t-32 -104.5t-53 -95.5 t-77 -80t-106 -53t-138.5 -20q-93 0 -166 28.5t-117 74t-72.5 107t-39 120.5t-10.5 122zM199 442q0 -53 7 -100.5t27.5 -98t53 -86t87.5 -58.5t128 -23q64 0 114.5 22t82.5 61t54 84t33 99.5t15 98.5t4 89q0 82 -19 187q-123 114 -282 114q-82 0 -144 -36.5t-95.5 -96 t-49.5 -124t-16 -132.5z" />
<glyph unicode="&#xf1;" horiz-adv-x="1003" d="M121 0v997h112q0 -7 1.5 -45.5t1.5 -46.5q4 -2 6 -4q88 54 187.5 84.5t174.5 30.5t128.5 -18.5t82 -45.5t44.5 -70t20 -78.5t4 -84.5v-719h-115v670q0 62 -7.5 103.5t-27.5 76.5t-59 51.5t-99 16.5q-72 0 -164.5 -32t-174.5 -77v-809h-115zM176 1237q22 62 65 99.5 t95 37.5q48 0 154.5 -38t142.5 -38l106 82l43 -32q-23 -62 -63 -101t-90 -39q-55 0 -160.5 40t-138.5 40l-109 -82z" />
<glyph unicode="&#xf2;" horiz-adv-x="1034" d="M100 489q0 81 14 154.5t46 142t80.5 118.5t121.5 80t164 30q93 0 166 -30t118 -79t74 -118t40.5 -140.5t11.5 -152.5q0 -79 -11.5 -148.5t-41.5 -137t-77 -115.5t-122 -77.5t-172 -29.5q-93 0 -165 27.5t-118 73.5t-75.5 111.5t-41.5 136.5t-12 154zM219 487 q0 -88 12 -154.5t43.5 -127.5t95 -94t156.5 -33q291 0 291 411q0 63 -6.5 118.5t-25.5 115.5t-50 102t-84.5 69.5t-124.5 27.5t-126 -26t-88.5 -67.5t-55 -99.5t-29.5 -116.5t-8 -125.5zM281 1391l92 84l231 -314l-57 -49z" />
<glyph unicode="&#xf3;" horiz-adv-x="1034" d="M100 489q0 81 14 154.5t46 142t80.5 118.5t121.5 80t164 30q93 0 166 -30t118 -79t74 -118t40.5 -140.5t11.5 -152.5q0 -79 -11.5 -148.5t-41.5 -137t-77 -115.5t-122 -77.5t-172 -29.5q-93 0 -165 27.5t-118 73.5t-75.5 111.5t-41.5 136.5t-12 154zM219 487 q0 -88 12 -154.5t43.5 -127.5t95 -94t156.5 -33q291 0 291 411q0 63 -6.5 118.5t-25.5 115.5t-50 102t-84.5 69.5t-124.5 27.5t-126 -26t-88.5 -67.5t-55 -99.5t-29.5 -116.5t-8 -125.5zM457 1157l229 316l92 -82l-268 -279z" />
<glyph unicode="&#xf4;" horiz-adv-x="1034" d="M100 489q0 81 14 154.5t46 142t80.5 118.5t121.5 80t164 30q93 0 166 -30t118 -79t74 -118t40.5 -140.5t11.5 -152.5q0 -79 -11.5 -148.5t-41.5 -137t-77 -115.5t-122 -77.5t-172 -29.5q-93 0 -165 27.5t-118 73.5t-75.5 111.5t-41.5 136.5t-12 154zM199 1147l286 274h88 l291 -270l-37 -45l-297 201l-297 -203zM219 487q0 -88 12 -154.5t43.5 -127.5t95 -94t156.5 -33q291 0 291 411q0 63 -6.5 118.5t-25.5 115.5t-50 102t-84.5 69.5t-124.5 27.5t-126 -26t-88.5 -67.5t-55 -99.5t-29.5 -116.5t-8 -125.5z" />
<glyph unicode="&#xf5;" horiz-adv-x="1034" d="M100 489q0 81 14 154.5t46 142t80.5 118.5t121.5 80t164 30q93 0 166 -30t118 -79t74 -118t40.5 -140.5t11.5 -152.5q0 -79 -11.5 -148.5t-41.5 -137t-77 -115.5t-122 -77.5t-172 -29.5q-93 0 -165 27.5t-118 73.5t-75.5 111.5t-41.5 136.5t-12 154zM219 487 q0 -88 12 -154.5t43.5 -127.5t95 -94t156.5 -33q291 0 291 411q0 63 -6.5 118.5t-25.5 115.5t-50 102t-84.5 69.5t-124.5 27.5t-126 -26t-88.5 -67.5t-55 -99.5t-29.5 -116.5t-8 -125.5zM225 1210q22 62 65 100t95 38q48 0 154.5 -38t142.5 -38l106 82l43 -33 q-23 -62 -63 -100.5t-90 -38.5q-54 0 -160 40t-139 40l-109 -82z" />
<glyph unicode="&#xf6;" horiz-adv-x="1034" d="M100 489q0 81 14 154.5t46 142t80.5 118.5t121.5 80t164 30q93 0 166 -30t118 -79t74 -118t40.5 -140.5t11.5 -152.5q0 -79 -11.5 -148.5t-41.5 -137t-77 -115.5t-122 -77.5t-172 -29.5q-93 0 -165 27.5t-118 73.5t-75.5 111.5t-41.5 136.5t-12 154zM219 487 q0 -88 12 -154.5t43.5 -127.5t95 -94t156.5 -33q291 0 291 411q0 63 -6.5 118.5t-25.5 115.5t-50 102t-84.5 69.5t-124.5 27.5t-126 -26t-88.5 -67.5t-55 -99.5t-29.5 -116.5t-8 -125.5zM289 1239q0 31 21.5 52.5t51.5 21.5q34 0 56 -21t22 -53q0 -31 -22 -51.5t-56 -20.5 q-31 0 -52 20.5t-21 51.5zM625 1239q0 31 21 52.5t50 21.5q33 0 55.5 -21t22.5 -53q0 -31 -23 -51.5t-55 -20.5q-31 0 -51 20.5t-20 51.5z" />
<glyph unicode="&#xf7;" d="M162 565v88h768v-88h-768zM463 307q0 34 25.5 58t60.5 24q34 0 59 -24t25 -58q0 -35 -25 -60.5t-59 -25.5q-35 0 -60.5 25.5t-25.5 60.5zM463 909q0 35 25.5 59.5t60.5 24.5q34 0 59 -24.5t25 -59.5t-25 -60.5t-59 -25.5q-35 0 -60.5 26t-25.5 60z" />
<glyph unicode="&#xf8;" horiz-adv-x="997" d="M80 -12q8 10 47.5 64t52.5 69q-98 124 -98 368q0 81 14 154.5t46 142t80.5 118.5t121.5 80t164 30q169 0 270 -101l76 99q7 0 33.5 1t34.5 1q-93 -126 -107 -142q100 -135 100 -378q0 -79 -11.5 -148.5t-41.5 -137t-76 -115.5t-121 -77.5t-171 -29.5q-180 0 -277 94 l-67 -90q-10 0 -37 -1t-33 -1zM201 492q0 -183 53 -279q42 53 231 311t226 305q-76 93 -203 93q-71 0 -125.5 -25.5t-88 -66.5t-55 -98.5t-29.5 -115.5t-9 -124zM285 162q74 -84 223 -84q289 0 289 411q0 183 -58 291q-32 -43 -221.5 -302.5t-232.5 -315.5z" />
<glyph unicode="&#xf9;" horiz-adv-x="985" d="M121 287v710h115v-675q0 -52 3 -85.5t14 -67.5t31 -52.5t55.5 -30.5t86.5 -12q68 0 158.5 37.5t167.5 105.5l-2 780q16 0 57 1t57 1v-999h-112v121l-7 4q-96 -84 -187 -114.5t-159 -30.5q-57 0 -101 10.5t-73 26t-49.5 42.5t-31 50t-16 59t-6.5 59t-1 60zM262 1391l92 84 l232 -314l-58 -49z" />
<glyph unicode="&#xfa;" horiz-adv-x="985" d="M121 287v710h115v-675q0 -52 3 -85.5t14 -67.5t31 -52.5t55.5 -30.5t86.5 -12q68 0 158.5 37.5t167.5 105.5l-2 780q16 0 57 1t57 1v-999h-112v121l-7 4q-96 -84 -187 -114.5t-159 -30.5q-57 0 -101 10.5t-73 26t-49.5 42.5t-31 50t-16 59t-6.5 59t-1 60zM416 1157 l229 316l92 -82l-268 -279z" />
<glyph unicode="&#xfb;" horiz-adv-x="985" d="M121 287v710h115v-675q0 -52 3 -85.5t14 -67.5t31 -52.5t55.5 -30.5t86.5 -12q68 0 158.5 37.5t167.5 105.5l-2 780q16 0 57 1t57 1v-999h-112v121l-7 4q-96 -84 -187 -114.5t-159 -30.5q-57 0 -101 10.5t-73 26t-49.5 42.5t-31 50t-16 59t-6.5 59t-1 60zM158 1147 l286 274h88l291 -270l-37 -45l-297 201l-296 -203z" />
<glyph unicode="&#xfc;" horiz-adv-x="985" d="M121 287v710h115v-675q0 -52 3 -85.5t14 -67.5t31 -52.5t55.5 -30.5t86.5 -12q68 0 158.5 37.5t167.5 105.5l-2 780q16 0 57 1t57 1v-999h-112v121l-7 4q-96 -84 -187 -114.5t-159 -30.5q-57 0 -101 10.5t-73 26t-49.5 42.5t-31 50t-16 59t-6.5 59t-1 60zM252 1239 q0 30 22 52t52 22q34 0 55.5 -21t21.5 -53q0 -31 -21.5 -51.5t-55.5 -20.5q-31 0 -52.5 20.5t-21.5 51.5zM588 1239q0 31 21 52.5t50 21.5q33 0 55.5 -21t22.5 -53q0 -31 -23 -51.5t-55 -20.5q-31 0 -51 20.5t-20 51.5z" />
<glyph unicode="&#xfd;" horiz-adv-x="888" d="M-2 -414l18 86q110 -22 164 -22q65 0 102.5 27.5t67.5 119.5l68 207h-60q-33 107 -169.5 521t-155.5 472h112q16 -52 102 -320t103 -327l86 -274h8q3 10 15 48.5t32.5 105.5t38.5 124q33 101 105 329.5t100 313.5h117q-22 -66 -111.5 -342t-170.5 -523.5t-113 -340.5 q-36 -116 -94.5 -175.5t-157.5 -59.5q-4 0 -20.5 1t-26.5 1.5t-30.5 2.5t-38 5t-42 8t-49.5 12zM358 1157l230 316l92 -82l-268 -279z" />
<glyph unicode="&#xfe;" horiz-adv-x="1017" d="M119 -428v1851h112v-534h2q66 54 151.5 86.5t166.5 32.5q100 0 172 -38t113 -106.5t60 -154t19 -191.5q0 -118 -21.5 -212.5t-67 -167.5t-122.5 -112.5t-182 -39.5q-167 0 -289 75q0 -81 -1 -244.5t-1 -244.5h-112zM233 158q47 -33 125.5 -57.5t151.5 -24.5q62 0 112 23 t90.5 73t62.5 138.5t22 209.5q0 213 -71 304t-204 91q-68 0 -155.5 -37t-133.5 -83v-637z" />
<glyph unicode="&#xff;" horiz-adv-x="888" d="M-2 -414l18 86q110 -22 164 -22q65 0 102.5 27.5t67.5 119.5l68 207h-60q-33 107 -169.5 521t-155.5 472h112q16 -52 102 -320t103 -327l86 -274h8q3 10 15 48.5t32.5 105.5t38.5 124q33 101 105 329.5t100 313.5h117q-22 -66 -111.5 -342t-170.5 -523.5t-113 -340.5 q-36 -116 -94.5 -175.5t-157.5 -59.5q-4 0 -20.5 1t-26.5 1.5t-30.5 2.5t-38 5t-42 8t-49.5 12zM215 1239q0 30 22 52t52 22q34 0 56 -21t22 -53q0 -31 -22 -51.5t-56 -20.5q-31 0 -52.5 20.5t-21.5 51.5zM551 1239q0 31 21.5 52.5t50.5 21.5q33 0 55 -21t22 -53 q0 -31 -22.5 -51.5t-54.5 -20.5q-31 0 -51.5 20.5t-20.5 51.5z" />
<glyph unicode="&#x152;" horiz-adv-x="1599" d="M102 688q0 119 18.5 223.5t61.5 199.5t108.5 162.5t166 107.5t227.5 40q112 0 188 -24h629v-92h-639v-521h543v-92h-543v-600h674v-92h-719q-58 -11 -133 -14q-156 0 -269 48t-181 141t-100 219.5t-32 293.5zM227 684q0 -301 109 -453.5t342 -152.5q23 0 63 4v1239 q-8 0 -27.5 2t-31.5 2q-106 0 -187 -36.5t-131 -96.5t-81.5 -145.5t-43.5 -173t-12 -189.5z" />
<glyph unicode="&#x153;" horiz-adv-x="1679" d="M86 489q0 81 14 154.5t46 142t80 118.5t121 80t163 30q262 0 352 -248q98 248 363 248q379 0 379 -475v-58h-680q-4 -401 305 -401q86 0 156.5 17t158.5 57l31 -78q-172 -88 -350 -88q-278 0 -367 229q-97 -231 -360 -231q-93 0 -165 27.5t-118 73.5t-75.5 111.5 t-41.5 136.5t-12 154zM205 487q0 -69 6.5 -124t26.5 -110.5t53 -92t88.5 -59.5t130.5 -23q291 0 291 411q0 433 -291 433q-71 0 -125.5 -26t-87.5 -67.5t-54.5 -99.5t-29.5 -116.5t-8 -125.5zM926 557h567q0 85 -13.5 149.5t-44 114.5t-84 76.5t-128.5 26.5 q-270 0 -297 -367z" />
<glyph unicode="&#x178;" horiz-adv-x="1024" d="M25 1401h129l219 -416l129 -256h8l133 254l227 418h127l-428 -770v-631h-127v623zM264 1556q0 29 22.5 50.5t51.5 21.5q32 0 55 -20.5t23 -51.5q0 -32 -22.5 -52.5t-55.5 -20.5q-31 0 -52.5 20.5t-21.5 52.5zM600 1556q0 29 21 50.5t49 21.5q34 0 57 -20.5t23 -51.5 q0 -32 -23 -52.5t-57 -20.5q-30 0 -50 20.5t-20 52.5z" />
<glyph unicode="&#x2c6;" horiz-adv-x="997" d="M154 1147l286 274h88l291 -270l-37 -45l-297 201l-297 -203z" />
<glyph unicode="&#x2dc;" horiz-adv-x="997" d="M195 1210q22 63 64.5 100.5t94.5 37.5q48 0 154.5 -38t142.5 -38l107 82l43 -33q-23 -62 -63.5 -100.5t-90.5 -38.5q-55 0 -160 40t-139 40l-108 -82z" />
<glyph unicode="&#x2000;" horiz-adv-x="919" />
<glyph unicode="&#x2001;" horiz-adv-x="1839" />
<glyph unicode="&#x2002;" horiz-adv-x="919" />
<glyph unicode="&#x2003;" horiz-adv-x="1839" />
<glyph unicode="&#x2004;" horiz-adv-x="613" />
<glyph unicode="&#x2005;" horiz-adv-x="459" />
<glyph unicode="&#x2006;" horiz-adv-x="306" />
<glyph unicode="&#x2007;" horiz-adv-x="306" />
<glyph unicode="&#x2008;" horiz-adv-x="229" />
<glyph unicode="&#x2009;" horiz-adv-x="367" />
<glyph unicode="&#x200a;" horiz-adv-x="102" />
<glyph unicode="&#x2010;" horiz-adv-x="708" d="M106 477v103h496v-103h-496z" />
<glyph unicode="&#x2011;" horiz-adv-x="708" d="M106 477v103h496v-103h-496z" />
<glyph unicode="&#x2012;" horiz-adv-x="708" d="M106 477v103h496v-103h-496z" />
<glyph unicode="&#x2013;" horiz-adv-x="1024" d="M57 473v94h914v-94h-914z" />
<glyph unicode="&#x2014;" horiz-adv-x="2048" d="M61 473v94h1917v-94h-1917z" />
<glyph unicode="&#x2018;" horiz-adv-x="413" d="M119 1186q0 68 47 147t115 121l28 -39q-70 -76 -73 -170q30 -6 47.5 -28t17.5 -54q0 -34 -25.5 -60t-60.5 -26q-43 0 -69.5 30t-26.5 79z" />
<glyph unicode="&#x2019;" horiz-adv-x="413" d="M121 1118q70 73 76 170q-31 6 -48.5 27.5t-17.5 52.5q0 36 25 62t61 26q43 0 68.5 -29.5t25.5 -78.5q0 -70 -45 -148.5t-114 -120.5z" />
<glyph unicode="&#x201a;" horiz-adv-x="346" d="M74 -193q34 38 52.5 87.5t20.5 97.5q-29 6 -47 27.5t-18 52.5q0 36 25 61t61 25q42 0 68 -29.5t26 -77.5q0 -71 -45 -155t-113 -125z" />
<glyph unicode="&#x201c;" horiz-adv-x="620" d="M117 1186q0 70 46 147t116 121q24 -30 30 -39q-70 -73 -76 -170q30 -6 48 -28t18 -54q0 -34 -25 -60t-61 -26q-43 0 -69.5 30t-26.5 79zM340 1186q0 68 47 147t115 121l30 -39q-72 -75 -75 -170q30 -6 47.5 -28t17.5 -54q0 -34 -25 -60t-61 -26q-43 0 -69.5 30t-26.5 79z " />
<glyph unicode="&#x201d;" horiz-adv-x="620" d="M119 1118q72 72 78 170q-31 6 -48.5 27.5t-17.5 52.5q0 36 24.5 62t61.5 26q43 0 68.5 -29.5t25.5 -78.5q0 -70 -45 -148.5t-114 -120.5zM342 1118q73 76 76 170q-29 6 -46.5 27.5t-17.5 52.5q0 36 24.5 62t61.5 26q43 0 69 -29.5t26 -78.5q0 -70 -46 -148.5t-116 -120.5 z" />
<glyph unicode="&#x201e;" horiz-adv-x="571" d="M74 -193q34 38 52.5 87.5t20.5 97.5q-29 6 -47 27.5t-18 52.5q0 36 25 61t61 25q42 0 68 -29.5t26 -77.5q0 -71 -45 -155t-113 -125zM301 -193q71 80 74 185q-30 6 -48 28t-18 52q0 36 25 61t61 25q42 0 68 -29.5t26 -77.5q0 -71 -44.5 -155t-112.5 -125z" />
<glyph unicode="&#x2022;" horiz-adv-x="593" d="M117 555q0 76 52 129t126 53q75 0 127.5 -53t52.5 -129q0 -75 -52.5 -128.5t-127.5 -53.5q-73 0 -125.5 53.5t-52.5 128.5z" />
<glyph unicode="&#x2026;" horiz-adv-x="1167" d="M90 76q0 34 26.5 59t61.5 25q34 0 59 -25t25 -59q0 -35 -25.5 -61.5t-58.5 -26.5q-35 0 -61.5 26.5t-26.5 61.5zM481 76q0 34 25 59t61 25q35 0 59.5 -25t24.5 -59q0 -35 -25 -61.5t-59 -26.5q-35 0 -60.5 26.5t-25.5 61.5zM889 76q0 34 25.5 59t60.5 25t60.5 -25 t25.5 -59q0 -35 -26 -61.5t-60 -26.5q-35 0 -60.5 26.5t-25.5 61.5z" />
<glyph unicode="&#x202f;" horiz-adv-x="367" />
<glyph unicode="&#x2039;" horiz-adv-x="626" d="M133 340v74l289 309l51 -41l-221 -305l221 -305l-49 -39z" />
<glyph unicode="&#x203a;" horiz-adv-x="626" d="M127 72l221 305l-219 305l49 41l289 -309v-74l-291 -307z" />
<glyph unicode="&#x205f;" horiz-adv-x="459" />
<glyph unicode="&#x20ac;" d="M57 561v68h838v-68h-631q4 -83 18.5 -150.5t46 -130t79 -105t121 -68t169.5 -25.5q142 0 324 45l20 -88q-63 -23 -167 -38t-191 -15q-261 0 -391 150.5t-143 424.5h-93zM57 741v66h97q8 84 29 160.5t63 152.5t100.5 131t147.5 89t198 34q190 0 330 -55l-25 -88 q-134 47 -301 47q-191 0 -298 -125t-130 -346h627v-66h-838z" />
<glyph unicode="&#x2122;" horiz-adv-x="1390" d="M78 1331v66h502v-66h-213v-567h-82v567h-207zM655 762v635h84l99 -201q97 -205 118 -246l138 281q75 152 82 166h81v-635h-75v493h-2q-64 -128 -99 -194l-94 -195h-67q-18 36 -49 101t-44 92q-63 124 -92 190h-2v-487h-78z" />
<glyph unicode="&#x25fc;" horiz-adv-x="993" d="M0 0v993h993v-993h-993z" />
</font>
</defs>
</svg>
