<?xml version="1.0" encoding="utf-8"?>
<!-- Generator: Adobe Illustrator 16.0.0, SVG Export Plug-In . SVG Version: 6.00 Build 0)  -->
<!DOCTYPE svg PUBLIC "-//W3C//DTD SVG 1.0//EN" "http://www.w3.org/TR/2001/REC-SVG-20010904/DTD/svg10.dtd">
<svg version="1.0" id="Ebene_1" xmlns="http://www.w3.org/2000/svg" xmlns:xlink="http://www.w3.org/1999/xlink" x="0px" y="0px"
	 width="324px" height="38px" viewBox="0 0 324 38" enable-background="new 0 0 324 38" xml:space="preserve">
<g>
	<g>
		<path fill="#4D4D4F" d="M11.052,20.264h8.903v-7.103c0-0.785-0.079-1.314-0.239-1.588c-0.204-0.376-0.682-0.613-1.433-0.717
			c-0.352-0.045-0.773-0.079-1.262-0.102V9.629c1.897,0.169,3.551,0.254,4.96,0.254c1.398,0,2.989-0.085,4.773-0.254v1.126
			c-0.99,0.034-1.684,0.137-2.082,0.307c-0.432,0.183-0.694,0.519-0.785,1.006c-0.045,0.229-0.068,0.593-0.068,1.094V29.62
			c0,0.773,0.079,1.303,0.239,1.587c0.205,0.387,0.683,0.625,1.433,0.716c0.341,0.046,0.762,0.08,1.263,0.102v1.11
			c-1.841-0.18-3.438-0.271-4.79-0.271c-1.33,0-2.978,0.092-4.943,0.271v-1.11c1.012-0.056,1.706-0.159,2.082-0.307
			c0.431-0.193,0.693-0.528,0.784-1.006c0.046-0.228,0.068-0.591,0.068-1.092v-8.112h-8.903v8.112c0,0.784,0.079,1.313,0.239,1.587
			c0.204,0.387,0.682,0.625,1.433,0.716c0.341,0.046,0.762,0.08,1.263,0.102v1.11c-1.956-0.18-3.609-0.271-4.961-0.271
			c-1.352,0-2.937,0.092-4.755,0.271v-1.11c1.001-0.056,1.689-0.159,2.064-0.307c0.432-0.193,0.688-0.528,0.768-1.006
			c0.057-0.228,0.085-0.591,0.085-1.092V13.162c0-0.785-0.08-1.314-0.239-1.588c-0.205-0.376-0.682-0.613-1.433-0.717
			c-0.341-0.045-0.756-0.079-1.245-0.102V9.629c1.761,0.169,3.346,0.254,4.755,0.254c1.41,0,3.063-0.085,4.961-0.254v1.126
			c-0.99,0.034-1.684,0.137-2.082,0.307c-0.433,0.183-0.688,0.519-0.768,1.006c-0.057,0.24-0.085,0.604-0.085,1.094V20.264z"/>
		<path fill="#4D4D4F" d="M36.103,30.268c-0.432,0.834-0.881,1.461-1.347,1.883c-0.898,0.834-2.034,1.25-3.41,1.25
			c-1.399,0-2.552-0.387-3.461-1.161c-1.001-0.842-1.501-1.958-1.501-3.347c0-2.14,1.313-3.746,3.939-4.816
			c1.533-0.614,3.301-1.053,5.301-1.314V20.51c0-1.096-0.154-1.867-0.461-2.316c-0.467-0.681-1.207-1.021-2.219-1.021
			c-0.831,0-1.509,0.219-2.032,0.654c-0.353,0.287-0.529,0.626-0.529,1.018c0,0.148,0.022,0.413,0.067,0.791
			c0.022,0.219,0.033,0.408,0.033,0.568c0,1.138-0.558,1.706-1.673,1.706c-0.968,0-1.451-0.484-1.451-1.454
			c0-1.128,0.547-2.102,1.64-2.924c1.207-0.911,2.688-1.368,4.442-1.368c1.333,0,2.483,0.269,3.451,0.805
			c1.23,0.672,1.993,1.68,2.289,3.023c0.16,0.707,0.239,1.727,0.239,3.06v6.464c0,0.911,0.063,1.564,0.188,1.963
			c0.148,0.466,0.529,0.699,1.143,0.699c0.193,0,0.478-0.051,0.853-0.153v0.989c-0.854,0.214-1.623,0.319-2.306,0.319
			c-1.128,0-1.96-0.342-2.495-1.027C36.45,31.861,36.216,31.182,36.103,30.268 M35.624,23.717c-1.456,0.274-2.582,0.623-3.378,1.046
			c-1.377,0.754-2.065,1.982-2.065,3.685c0,1.006,0.228,1.795,0.682,2.365c0.455,0.583,1.081,0.874,1.878,0.874
			c1.307,0,2.172-0.647,2.593-1.943c0.193-0.596,0.29-1.529,0.29-2.803V23.717z"/>
		<path fill="#4D4D4F" d="M42.23,17.866v-0.802c2.255-0.273,4.024-0.613,5.307-1.023c0.296,0.739,0.484,1.729,0.564,2.968
			c1.238-1.895,2.891-2.843,4.958-2.843c1.976,0,3.436,0.707,4.379,2.119c0.568,0.866,0.852,2.126,0.852,3.778v8.171
			c-0.012,0.898,0.182,1.467,0.58,1.706c0.307,0.171,0.95,0.278,1.928,0.323v0.87c-1.549-0.135-2.932-0.203-4.15-0.203
			c-1.23,0-2.591,0.068-4.082,0.203v-0.836c0.75-0.022,1.262-0.159,1.535-0.41c0.273-0.271,0.404-0.772,0.392-1.501V21.67
			c0-1.213-0.153-2.071-0.459-2.574c-0.475-0.789-1.246-1.184-2.311-1.184c-1.121,0-1.982,0.429-2.582,1.287
			c-0.374,0.549-0.561,1.407-0.561,2.573v8.613c-0.012,0.729,0.12,1.229,0.393,1.501c0.261,0.251,0.761,0.388,1.501,0.41v0.836
			c-1.469-0.135-2.824-0.203-4.065-0.203c-1.207,0-2.585,0.068-4.133,0.203v-0.87c0.978-0.045,1.62-0.152,1.927-0.323
			c0.398-0.239,0.592-0.808,0.58-1.706v-9.996c-0.011-0.671-0.023-1.109-0.034-1.314c-0.069-0.58-0.426-0.916-1.07-1.007
			C43.369,17.883,42.885,17.866,42.23,17.866"/>
		<path fill="#4D4D4F" d="M61.672,33.536V27.42h0.92c0.148,0.958,0.375,1.756,0.682,2.395c0.331,0.718,0.814,1.294,1.452,1.727
			c0.66,0.434,1.388,0.65,2.185,0.65c0.945,0,1.731-0.29,2.356-0.87c0.603-0.546,0.906-1.206,0.906-1.98
			c0-0.773-0.371-1.422-1.111-1.945c-0.42-0.297-1.268-0.769-2.543-1.417c-1.32-0.705-2.134-1.148-2.441-1.331
			c-0.922-0.547-1.554-1.16-1.895-1.844c-0.297-0.592-0.444-1.245-0.444-1.963c0-1.433,0.528-2.559,1.585-3.379
			c1.09-0.865,2.419-1.297,3.987-1.297c1.375,0,2.635,0.431,3.782,1.292l0.75-1.696h0.648v5.68h-0.92
			c-0.126-0.938-0.324-1.698-0.598-2.281c-0.58-1.212-1.592-1.818-3.037-1.818c-0.933,0-1.706,0.278-2.32,0.836
			c-0.547,0.489-0.819,1.07-0.819,1.741c0,0.762,0.386,1.383,1.16,1.86c0.376,0.228,1.212,0.654,2.509,1.279
			c1.331,0.649,2.298,1.173,2.902,1.571c0.637,0.421,1.103,0.859,1.399,1.314c0.398,0.613,0.597,1.376,0.597,2.287
			c0,1.457-0.517,2.668-1.551,3.635c-1.069,1.002-2.483,1.502-4.244,1.502c-1.591,0-3.04-0.539-4.347-1.619l-0.903,1.787H61.672z"/>
		<path fill="#4D4D4F" d="M87.884,27.757h1.382c-0.217,1.401-0.711,2.582-1.483,3.539c-1.159,1.448-2.83,2.172-5.012,2.172
			c-2.329,0-4.175-0.796-5.538-2.388c-1.318-1.548-1.977-3.642-1.977-6.279c0-2.696,0.681-4.84,2.045-6.433
			c1.318-1.535,3.045-2.304,5.181-2.304c1.625,0,3.028,0.477,4.21,1.427c1.602,1.305,2.454,3.673,2.557,7.106H79.098
			c0.023,2.016,0.199,3.55,0.529,4.604c0.615,1.992,1.905,2.989,3.873,2.989c1.581,0,2.775-0.688,3.583-2.062
			C87.479,29.464,87.748,28.674,87.884,27.757 M85.427,23.355c-0.046-1.452-0.17-2.609-0.375-3.473
			c-0.433-1.918-1.309-2.877-2.628-2.877c-1.979,0-3.071,2.117-3.276,6.35H85.427z"/>
		<path fill="#4D4D4F" d="M91.394,33.536V27.42h0.92c0.148,0.958,0.375,1.756,0.682,2.395c0.33,0.718,0.814,1.294,1.451,1.727
			c0.661,0.434,1.389,0.65,2.186,0.65c0.945,0,1.73-0.29,2.356-0.87c0.603-0.546,0.905-1.206,0.905-1.98
			c0-0.773-0.37-1.422-1.11-1.945c-0.421-0.297-1.269-0.769-2.543-1.417c-1.321-0.705-2.134-1.148-2.441-1.331
			c-0.922-0.547-1.554-1.16-1.895-1.844c-0.297-0.592-0.444-1.245-0.444-1.963c0-1.433,0.528-2.559,1.585-3.379
			c1.09-0.865,2.419-1.297,3.987-1.297c1.374,0,2.635,0.431,3.782,1.292l0.75-1.696h0.648v5.68h-0.92
			c-0.126-0.938-0.325-1.698-0.598-2.281c-0.58-1.212-1.592-1.818-3.037-1.818c-0.933,0-1.707,0.278-2.32,0.836
			c-0.547,0.489-0.82,1.07-0.82,1.741c0,0.762,0.387,1.383,1.161,1.86c0.376,0.228,1.212,0.654,2.509,1.279
			c1.331,0.649,2.298,1.173,2.901,1.571c0.637,0.421,1.103,0.859,1.399,1.314c0.398,0.613,0.598,1.376,0.598,2.287
			c0,1.457-0.517,2.668-1.551,3.635c-1.069,1.002-2.483,1.502-4.244,1.502c-1.592,0-3.04-0.539-4.347-1.619l-0.903,1.787H91.394z"/>
		<path fill="#4D4D4F" d="M114.175,30.833v1.261c-1.276,0.827-2.546,1.24-3.81,1.24c-1.71,0-2.923-0.579-3.641-1.738
			c-0.478-0.771-0.701-2.016-0.666-3.73l0.205-9.986h-2.134v-1.223c1.286-0.045,2.356-0.569,3.209-1.572
			c0.763-0.922,1.297-2.141,1.604-3.656h1.16l-0.05,5.107h3.72v1.344h-3.738l-0.05,10.263c0,1.352,0.096,2.244,0.29,2.676
			c0.307,0.647,0.833,0.972,1.574,0.972C112.51,31.789,113.285,31.469,114.175,30.833"/>
		<path fill="#4D4D4F" d="M124.603,30.268c-0.432,0.834-0.881,1.461-1.348,1.883c-0.897,0.834-2.033,1.25-3.41,1.25
			c-1.397,0-2.552-0.387-3.46-1.161c-1-0.842-1.5-1.958-1.5-3.347c0-2.14,1.312-3.746,3.938-4.816
			c1.534-0.614,3.301-1.053,5.301-1.314V20.51c0-1.096-0.153-1.867-0.461-2.316c-0.466-0.681-1.206-1.021-2.219-1.021
			c-0.831,0-1.509,0.219-2.032,0.654c-0.354,0.287-0.529,0.626-0.529,1.018c0,0.148,0.022,0.413,0.067,0.791
			c0.022,0.219,0.034,0.408,0.034,0.568c0,1.138-0.558,1.706-1.673,1.706c-0.968,0-1.452-0.484-1.452-1.454
			c0-1.128,0.547-2.102,1.64-2.924c1.207-0.911,2.688-1.368,4.442-1.368c1.332,0,2.482,0.269,3.451,0.805
			c1.229,0.672,1.992,1.68,2.289,3.023c0.16,0.707,0.24,1.727,0.24,3.06v6.464c0,0.911,0.062,1.564,0.187,1.963
			c0.147,0.466,0.528,0.699,1.143,0.699c0.194,0,0.478-0.051,0.853-0.153v0.989c-0.854,0.214-1.621,0.319-2.305,0.319
			c-1.129,0-1.959-0.342-2.496-1.027C124.95,31.861,124.716,31.182,124.603,30.268 M124.124,23.717
			c-1.456,0.274-2.582,0.623-3.378,1.046c-1.376,0.754-2.065,1.982-2.065,3.685c0,1.006,0.228,1.795,0.683,2.365
			c0.455,0.583,1.08,0.874,1.877,0.874c1.308,0,2.172-0.647,2.593-1.943c0.193-0.596,0.29-1.529,0.29-2.803V23.717z"/>
		<path fill="#4D4D4F" d="M148.167,31.633v0.801c-1.288,0.147-2.161,0.268-2.616,0.358c-0.764,0.148-1.688,0.387-2.771,0.717
			c-0.263-0.854-0.447-1.66-0.55-2.423c-0.989,1.723-2.396,2.583-4.217,2.583c-2.024,0-3.681-0.797-4.967-2.389
			c-1.343-1.661-2.015-3.749-2.015-6.264c0-2.446,0.649-4.493,1.946-6.144c1.263-1.604,2.867-2.405,4.812-2.405
			c1.081,0,1.974,0.256,2.681,0.768c0.33,0.226,0.756,0.653,1.279,1.278v-5.081c0-1.08-0.165-1.751-0.494-2.014
			c-0.263-0.204-0.922-0.307-1.979-0.307v-0.802c2.204-0.17,4.294-0.54,6.271-1.109v20.111c0.01,1.057,0.164,1.706,0.459,1.944
			C146.312,31.507,147.032,31.633,148.167,31.633 M138.22,17.442c-1.273,0-2.154,0.74-2.644,2.218
			c-0.433,1.286-0.647,3.049-0.647,5.289c0,2.186,0.205,3.948,0.613,5.29c0.227,0.729,0.614,1.336,1.16,1.825
			c0.466,0.421,1.039,0.631,1.723,0.631c0.828,0,1.528-0.363,2.096-1.091c0.842-1.081,1.263-3.242,1.263-6.483
			c0-2.309-0.233-4.124-0.7-5.442C140.56,18.188,139.605,17.442,138.22,17.442"/>
		<path fill="#4D4D4F" d="M158.39,30.833v1.261c-1.275,0.827-2.546,1.24-3.811,1.24c-1.709,0-2.922-0.579-3.641-1.738
			c-0.479-0.771-0.701-2.016-0.666-3.73l0.205-9.986h-2.134v-1.223c1.286-0.045,2.356-0.569,3.209-1.572
			c0.763-0.922,1.297-2.141,1.604-3.656h1.16l-0.051,5.107h3.721v1.344h-3.738l-0.051,10.263c0,1.352,0.097,2.244,0.291,2.676
			c0.307,0.647,0.832,0.972,1.574,0.972C156.725,31.789,157.5,31.469,158.39,30.833"/>
		<path fill="#4D4D4F" d="M187.85,26.883l-1.007,6.147h-16.299v-1.126c1-0.045,1.688-0.142,2.063-0.29
			c0.433-0.192,0.688-0.528,0.767-1.006c0.058-0.238,0.086-0.603,0.086-1.092V13.162c0-0.785-0.08-1.314-0.238-1.588
			c-0.205-0.376-0.682-0.613-1.434-0.717c-0.341-0.045-0.757-0.079-1.244-0.102V9.629c1.873,0.169,3.504,0.253,4.891,0.253
			c1.386,0,3.021-0.084,4.908-0.253v1.126c-0.99,0.046-1.678,0.147-2.064,0.307c-0.433,0.183-0.693,0.519-0.785,1.006
			c-0.046,0.218-0.068,0.581-0.068,1.094V29.84c0,0.764,0.131,1.265,0.393,1.504c0.296,0.263,0.876,0.399,1.74,0.41h2.081
			c1.218-0.011,2.122-0.223,2.713-0.632c0.683-0.444,1.319-1.311,1.911-2.599c0.216-0.479,0.41-1.025,0.58-1.641H187.85z"/>
		<path fill="#4D4D4F" d="M206.673,13.161v11.905c0,1.604-0.159,2.841-0.478,3.706c-0.591,1.594-1.614,2.796-3.071,3.604
			c-1.285,0.706-2.838,1.06-4.658,1.06c-2.785,0-4.936-0.85-6.448-2.545c-0.819-0.911-1.331-1.971-1.536-3.178
			c-0.113-0.706-0.171-1.485-0.171-2.34V13.161c0-0.784-0.079-1.313-0.238-1.587c-0.204-0.375-0.683-0.614-1.433-0.717
			c-0.342-0.045-0.758-0.079-1.245-0.103V9.628c1.874,0.169,3.51,0.254,4.907,0.254c1.387,0,3.017-0.085,4.892-0.254v1.126
			c-0.989,0.046-1.678,0.148-2.065,0.308c-0.432,0.182-0.693,0.518-0.785,1.007c-0.045,0.216-0.067,0.58-0.067,1.092v12.86
			c0,1.798,0.336,3.102,1.009,3.91c0.922,1.104,2.328,1.655,4.219,1.655c1.595,0,2.916-0.387,3.963-1.161
			c0.934-0.682,1.521-1.678,1.76-2.986c0.113-0.649,0.171-1.485,0.171-2.51V13.161c0-0.784-0.08-1.313-0.239-1.587
			c-0.203-0.375-0.682-0.614-1.433-0.717c-0.341-0.045-0.757-0.079-1.245-0.103V9.628c1.398,0.103,2.598,0.153,3.598,0.153
			c1.002,0,2.172-0.051,3.514-0.153v1.126c-0.989,0.046-1.678,0.148-2.064,0.308c-0.434,0.182-0.693,0.518-0.785,1.007
			C206.696,12.296,206.673,12.66,206.673,13.161 M196.099,3.331c0.615,0,1.152,0.224,1.609,0.668
			c0.443,0.456,0.666,1.004,0.666,1.643c0,0.628-0.223,1.17-0.666,1.626c-0.457,0.444-1.004,0.667-1.644,0.667
			c-0.628,0-1.164-0.223-1.608-0.667c-0.457-0.456-0.685-0.998-0.685-1.626c0-0.65,0.228-1.197,0.685-1.643
			C194.914,3.554,195.46,3.331,196.099,3.331 M202.483,3.331c0.616,0,1.151,0.224,1.608,0.668c0.445,0.456,0.668,1.004,0.668,1.643
			c0,0.628-0.223,1.17-0.668,1.626c-0.457,0.444-0.998,0.667-1.625,0.667c-0.639,0-1.188-0.223-1.644-0.667
			c-0.444-0.456-0.667-0.998-0.667-1.626c0-0.65,0.223-1.197,0.667-1.643C201.291,3.554,201.843,3.331,202.483,3.331"/>
		<path fill="#4D4D4F" d="M224.107,20.541c0.964,0.159,1.777,0.438,2.436,0.835c0.76,0.455,1.373,1.08,1.84,1.874
			c0.533,0.91,0.801,1.932,0.801,3.068c0,1.771-0.597,3.277-1.789,4.516c-1.422,1.466-3.808,2.198-7.16,2.198h-9.256v-1.126
			c1.002-0.045,1.689-0.143,2.064-0.29c0.432-0.194,0.688-0.529,0.768-1.006c0.058-0.24,0.086-0.604,0.086-1.094V13.262
			c0-0.783-0.08-1.308-0.239-1.568c-0.205-0.388-0.683-0.631-1.433-0.734c-0.342-0.034-0.756-0.068-1.246-0.103V9.749h9.818
			c1.512,0,2.692,0.148,3.545,0.444c1.249,0.443,2.204,1.183,2.863,2.219c0.58,0.9,0.869,1.914,0.869,3.04
			C228.074,17.967,226.75,19.664,224.107,20.541 M217.759,20.264h2.047c1.049,0,1.828-0.131,2.34-0.392
			c1.265-0.637,1.896-2.052,1.896-4.245c0-1.636-0.309-2.835-0.922-3.596c-0.547-0.693-1.509-1.04-2.887-1.04h-2.475V20.264z
			 M217.759,21.507v8.65c0,0.646,0.113,1.064,0.342,1.258c0.238,0.204,0.722,0.306,1.451,0.306h1.278c2.88,0,4.321-1.733,4.321-5.2
			c0-1.778-0.389-3.1-1.162-3.959c-0.637-0.703-1.782-1.055-3.432-1.055H217.759z"/>
		<path fill="#4D4D4F" d="M249.365,26.883l-0.99,6.147H232.04v-1.126c1.001-0.045,1.688-0.142,2.063-0.29
			c0.433-0.192,0.688-0.528,0.769-1.006c0.058-0.238,0.085-0.603,0.085-1.092V13.263c0-0.785-0.079-1.309-0.238-1.57
			c-0.205-0.387-0.683-0.631-1.434-0.733c-0.341-0.034-0.756-0.068-1.245-0.103V9.749h16.113l0.853,5.778h-0.988
			c-0.354-1.444-0.736-2.465-1.147-3.062c-0.399-0.587-0.884-0.988-1.455-1.202c-0.468-0.181-1.106-0.271-1.916-0.271h-4.577v9.341
			h4.354c0.628,0,1.062-0.104,1.303-0.31c0.423-0.378,0.681-1.249,0.771-2.614h1.131v7.057h-1.131
			c-0.033-0.906-0.131-1.553-0.291-1.938c-0.16-0.374-0.394-0.634-0.703-0.781c-0.252-0.113-0.611-0.17-1.079-0.17h-4.354v8.289
			c0,0.772,0.131,1.277,0.395,1.516c0.297,0.261,0.88,0.397,1.748,0.409h2.092c1.209-0.012,2.115-0.222,2.721-0.631
			c0.684-0.442,1.323-1.316,1.917-2.622c0.216-0.488,0.41-1.039,0.581-1.652H249.365z"/>
		<path fill="#4D4D4F" d="M268.3,24.901h1.213c-0.057,1.896-0.467,3.497-1.23,4.803c-0.763,1.295-1.826,2.282-3.193,2.963
			c-1.149,0.579-2.437,0.869-3.859,0.869c-2.003,0-3.785-0.574-5.346-1.723c-1.604-1.183-2.771-2.86-3.5-5.032
			c-0.512-1.524-0.769-3.252-0.769-5.187c0-3.331,0.712-6.123,2.136-8.375c0.842-1.318,1.953-2.331,3.33-3.035
			c1.297-0.649,2.732-0.974,4.303-0.974c2.301,0,4.26,0.8,5.877,2.4l1.177-2.367h0.716v7.594h-0.988
			c-0.342-1.479-0.804-2.675-1.383-3.586c-0.512-0.831-1.217-1.491-2.113-1.98c-0.82-0.434-1.724-0.649-2.713-0.649
			c-2.252,0-3.86,1.052-4.826,3.154c-0.899,1.955-1.349,4.426-1.349,7.416c0,2.897,0.433,5.256,1.296,7.074
			c0.979,2.057,2.644,3.086,4.997,3.086c1.536,0,2.855-0.453,3.958-1.362C267.397,28.856,268.153,27.16,268.3,24.901"/>
		<path fill="#4D4D4F" d="M279.017,21.16l7.836-8.58c0.375-0.42,0.563-0.756,0.563-1.006c0-0.375-0.275-0.608-0.825-0.699
			c-0.309-0.045-0.773-0.086-1.393-0.12V9.628c1.426,0.103,2.674,0.153,3.746,0.153s2.32-0.051,3.746-0.153v1.126
			c-0.785,0.046-1.406,0.144-1.859,0.29c-0.809,0.273-1.606,0.831-2.391,1.671l-5.14,5.562l7.124,11.223
			c0.705,1.104,1.366,1.815,1.98,2.133c0.455,0.217,1.121,0.348,2,0.393v1.108c-1.892-0.18-3.565-0.27-5.023-0.27
			c-1.459,0-3.133,0.09-5.023,0.27v-1.108c0.586-0.045,1.027-0.091,1.32-0.137c0.643-0.091,0.964-0.358,0.964-0.802
			c0-0.228-0.169-0.625-0.51-1.193l-5.341-9.023l-1.775,1.91v6.84c0,0.785,0.079,1.313,0.239,1.586
			c0.205,0.376,0.683,0.614,1.433,0.717c0.285,0.034,0.637,0.068,1.059,0.103v1.108c-1.514-0.18-3.018-0.27-4.508-0.27
			c-1.516,0-3.172,0.09-4.971,0.27v-1.108c1.001-0.045,1.689-0.148,2.065-0.308c0.432-0.182,0.688-0.517,0.768-1.007
			c0.056-0.227,0.085-0.591,0.085-1.091V13.161c0-0.784-0.08-1.313-0.238-1.587c-0.205-0.375-0.688-0.614-1.451-0.716
			c-0.353-0.046-0.762-0.079-1.229-0.104V9.628c1.876,0.17,3.529,0.254,4.961,0.254c1.409,0,2.983-0.084,4.723-0.254v1.126
			c-0.99,0.034-1.685,0.138-2.082,0.308c-0.434,0.183-0.694,0.518-0.785,1.007c-0.045,0.228-0.068,0.592-0.068,1.092V21.16z"/>
		<rect x="306.28" y="9.805" fill="#FFFFFF" width="14.449" height="10.38"/>
		<rect x="306.28" y="9.805" fill="none" stroke="#4D4D4F" stroke-width="0.532" width="14.449" height="10.38"/>
		<rect x="306.28" y="22.722" fill="#E1001A" width="14.449" height="10.38"/>
		<rect x="306.28" y="22.723" fill="none" stroke="#4D4D4F" stroke-width="0.532" width="14.449" height="10.379"/>
	</g>
</g>
</svg>
