<?xml version="1.0" encoding="utf-8"?>
<!-- Generator: Adobe Illustrator 16.0.0, SVG Export Plug-In . SVG Version: 6.00 Build 0)  -->
<!DOCTYPE svg PUBLIC "-//W3C//DTD SVG 1.0//EN" "http://www.w3.org/TR/2001/REC-SVG-20010904/DTD/svg10.dtd">
<svg version="1.0" id="Ebene_1" xmlns="http://www.w3.org/2000/svg" xmlns:xlink="http://www.w3.org/1999/xlink" x="0px" y="0px"
	 width="284px" height="175px" viewBox="0 0 284 175" enable-background="new 0 0 284 175" xml:space="preserve">
<g>
	<defs>
		<rect id="SVGID_1_" x="0" y="0.001" width="281.387" height="173.437"/>
	</defs>
	<clipPath id="SVGID_2_">
		<use xlink:href="#SVGID_1_"  overflow="visible"/>
	</clipPath>
	<path clip-path="url(#SVGID_2_)" fill="#550000" d="M93.932,91.592c-1.117-21.46-12.359-28.539-31.48-27.54
		c-5.364,0.282-11.983,1.278-18.178,2.894L26.7,85.122L22.244,0l-4.5,0.235L0,21.77l7.948,151.667l23.531-1.232L27.34,93.167
		c8.854-5.792,18.461-9.496,26.321-9.908c12.962-0.678,17.32,5.276,18.031,18.877l3.558,67.772l22.729-1.19L93.932,91.592z"/>
	<path clip-path="url(#SVGID_2_)" fill="#550000" d="M281.387,156.604v-8.607c0-1.85-0.283-4.188-3.828-4.188
		c-1.438,0-3.314,0.694-4.521,1.542c-0.643-1.054-1.695-1.516-3.031-1.516c-1.285,0-2.853,0.513-4.24,1.438l-0.103-0.077
		l-0.026-1.13h-2.028v12.538h2.081v-9.841c1.104-0.693,2.492-1.208,3.725-1.208s2.03,0.721,2.03,2.364v8.685h2.081v-8.273
		c0-0.438-0.026-1.13-0.154-1.696c0.95-0.616,2.518-1.104,3.622-1.104c1.927,0,2.287,1.003,2.287,2.801v8.273H281.387z
		 M253.579,156.887c0.873,0,2.568-0.283,4.213-1.748l0.053,0.053l0.024,1.412h2.03v-12.564c-0.668,0-1.362,0.026-2.055,0.026v9.507
		c-1.209,1.079-2.699,1.593-3.649,1.593c-1.952,0-2.158-1.053-2.158-2.801v-8.299h-2.081v8.812
		C249.956,154.728,250.162,156.887,253.579,156.887 M241.643,143.782c-4.729,0-5.498,4.343-5.498,6.578
		c0,3.495,1.104,6.397,5.574,6.397c1.67,0,3.187-0.359,4.676-1.156l-0.514-1.336c-1.412,0.592-2.543,0.899-4.008,0.899
		c-2.8,0-3.597-2.056-3.57-4.394h8.4v-1.003C246.704,148.227,246.653,143.782,241.643,143.782 M241.694,145.324
		c2.312,0,3.031,1.67,3.031,4.085h-6.397C238.483,147.277,239.279,145.324,241.694,145.324 M223.969,155.782
		c1.131,0.642,2.98,0.976,4.471,0.976c2.877,0,4.957-1.079,4.957-3.597c0-2.647-2.209-3.238-4.315-3.906
		c-1.028-0.334-2.672-0.822-2.672-1.901c0-1.388,1.233-1.85,2.544-1.85c0.873,0,1.85,0.154,3.135,0.668l0.641-1.465
		c-1.104-0.668-2.696-0.899-3.75-0.899c-2.518,0-4.547,1.105-4.547,3.521c0,2.312,2.055,2.878,4.238,3.648
		c1.413,0.488,2.698,0.873,2.698,2.21c0,1.517-1.259,2.005-2.853,2.005c-0.898,0-2.287-0.13-3.879-0.849L223.969,155.782z
		 M214.7,156.887c0.873,0,2.568-0.283,4.213-1.748l0.053,0.053l0.024,1.412h2.03v-12.564c-0.668,0-1.362,0.026-2.055,0.026v9.507
		c-1.209,1.079-2.699,1.593-3.648,1.593c-1.953,0-2.159-1.053-2.159-2.801v-8.299h-2.081v8.812
		C211.077,154.728,211.283,156.887,214.7,156.887 M207.37,156.604v-8.607c0-1.85-0.281-4.188-3.828-4.188
		c-1.438,0-3.314,0.694-4.521,1.542c-0.643-1.054-1.695-1.516-3.031-1.516c-1.285,0-2.852,0.513-4.239,1.438l-0.103-0.077
		l-0.026-1.13h-2.028v12.538h2.08v-9.841c1.104-0.693,2.492-1.208,3.725-1.208c1.234,0,2.031,0.721,2.031,2.364v8.685h2.08v-8.273
		c0-0.438-0.025-1.13-0.154-1.696c0.951-0.616,2.518-1.104,3.623-1.104c1.927,0,2.287,1.003,2.287,2.801v8.273H207.37z
		 M181.24,143.782c-4.728,0-5.498,4.343-5.498,6.578c0,3.495,1.104,6.397,5.575,6.397c1.67,0,3.185-0.359,4.675-1.156l-0.513-1.336
		c-1.413,0.592-2.545,0.899-4.008,0.899c-2.801,0-3.598-2.056-3.571-4.394h8.401v-1.003
		C186.301,148.227,186.249,143.782,181.24,143.782 M181.291,145.324c2.312,0,3.032,1.67,3.032,4.085h-6.398
		C178.079,147.277,178.875,145.324,181.291,145.324 M163.566,155.782c1.131,0.642,2.979,0.976,4.471,0.976
		c2.877,0,4.958-1.079,4.958-3.597c0-2.647-2.209-3.238-4.316-3.906c-1.027-0.334-2.672-0.822-2.672-1.901
		c0-1.388,1.233-1.85,2.543-1.85c0.875,0,1.851,0.154,3.135,0.668l0.643-1.465c-1.105-0.668-2.697-0.899-3.751-0.899
		c-2.519,0-4.547,1.105-4.547,3.521c0,2.312,2.055,2.878,4.239,3.648c1.412,0.488,2.697,0.873,2.697,2.21
		c0,1.517-1.259,2.005-2.852,2.005c-0.9,0-2.287-0.13-3.88-0.849L163.566,155.782z M160.617,156.604v-8.787
		c0-1.875-0.257-4.034-3.674-4.034c-1.207,0-2.954,0.514-4.367,1.413l-0.078-0.052l-0.024-1.078h-2.057v12.538h2.107v-9.866
		c1.078-0.617,2.646-1.233,3.828-1.233c1.978,0,2.184,1.079,2.184,2.826v8.273H160.617z M145.795,148.022
		c0-3.084-1.593-4.163-4.24-4.163c-1.567,0-3.417,0.359-4.83,1.002l0.463,1.414c1.259-0.438,2.646-0.694,3.879-0.694
		c2.081,0,2.698,0.771,2.698,2.852v0.798l-3.212,0.204c-3.185,0.206-4.753,1.594-4.753,3.777c0,1.439,0.745,3.598,3.649,3.598
		c0.77,0,2.415,0,4.342-1.645l0.025,0.026c0.052,1.31,0.617,1.593,1.619,1.593c0.668,0,1.566-0.206,2.184-0.515l-0.129-1.232h-1.695
		V148.022z M143.766,150.617v2.929c-1.156,1.054-2.338,1.646-3.417,1.646c-1.644,0-2.312-0.721-2.312-2.185
		c0-1.259,0.822-2.106,2.517-2.184L143.766,150.617z M132.256,156.604v-17.574h-2.235v7.399h-8.222c0-2.493,0.026-4.907,0.026-7.399
		h-2.235v17.574h2.235c0-2.801-0.026-5.602-0.026-8.401h8.222v8.401H132.256z"/>
	<path clip-path="url(#SVGID_2_)" fill="#550000" d="M254.724,127.905c1.131,0.643,2.979,0.977,4.472,0.977
		c2.877,0,4.957-1.079,4.957-3.598c0-2.646-2.209-3.237-4.315-3.906c-1.028-0.334-2.673-0.821-2.673-1.9
		c0-1.388,1.233-1.851,2.543-1.851c0.875,0,1.851,0.154,3.136,0.668l0.642-1.465c-1.104-0.668-2.697-0.898-3.75-0.898
		c-2.519,0-4.548,1.104-4.548,3.52c0,2.313,2.056,2.878,4.239,3.649c1.413,0.488,2.697,0.873,2.697,2.21
		c0,1.516-1.26,2.004-2.852,2.004c-0.9,0-2.287-0.129-3.88-0.848L254.724,127.905z M247.222,115.905
		c-4.728,0-5.498,4.343-5.498,6.578c0,3.495,1.104,6.398,5.576,6.398c1.67,0,3.185-0.36,4.675-1.156l-0.513-1.336
		c-1.413,0.591-2.544,0.898-4.009,0.898c-2.801,0-3.597-2.056-3.57-4.394h8.4v-1.002
		C252.284,120.351,252.232,115.905,247.222,115.905 M247.274,117.447c2.312,0,3.031,1.67,3.031,4.085h-6.396
		C244.062,119.4,244.86,117.447,247.274,117.447 M230.472,117.19l0.077-2.672v-4.061h-2.081v18.27h2.106v-9.867
		c1.078-0.617,2.646-1.233,3.828-1.233c2.004,0,2.184,1.079,2.184,2.826v8.274h2.08v-8.788c0-1.875-0.18-4.034-3.596-4.034
		c-1.131,0-2.877,0.591-4.394,1.388L230.472,117.19z M218.011,122.406c0-2.904,1.336-4.805,3.751-4.805
		c0.822,0,1.747,0.051,2.955,0.463l0.488-1.516c-1.311-0.54-2.492-0.644-3.623-0.644c-4.728,0-5.729,4.034-5.729,6.707
		c0,3.571,1.413,6.27,5.601,6.27c1.67,0,3.289-0.463,4.369-1.054l-0.566-1.388c-1.258,0.514-2.312,0.797-3.622,0.797
		C218.86,127.237,218.011,125.182,218.011,122.406 M203.907,127.905c1.131,0.643,2.98,0.977,4.471,0.977
		c2.877,0,4.959-1.079,4.959-3.598c0-2.646-2.211-3.237-4.317-3.906c-1.026-0.334-2.672-0.821-2.672-1.9
		c0-1.388,1.233-1.851,2.544-1.851c0.873,0,1.85,0.154,3.135,0.668l0.643-1.465c-1.105-0.668-2.698-0.898-3.752-0.898
		c-2.518,0-4.547,1.104-4.547,3.52c0,2.313,2.055,2.878,4.238,3.649c1.413,0.488,2.698,0.873,2.698,2.21
		c0,1.516-1.259,2.004-2.853,2.004c-0.898,0-2.285-0.129-3.879-0.848L203.907,127.905z M201.106,112.899
		c0-0.771-0.642-1.388-1.412-1.388c-0.72,0-1.361,0.616-1.361,1.388c0,0.719,0.642,1.362,1.361,1.362
		C200.464,114.262,201.106,113.618,201.106,112.899 M200.721,116.188h-2.081v12.539h2.081V116.188z M187.901,113.233
		c0-0.668-0.488-1.131-1.207-1.131c-0.592,0-1.156,0.489-1.156,1.131s0.514,1.13,1.182,1.13
		C187.413,114.363,187.901,113.875,187.901,113.233 M192.731,113.233c0-0.668-0.539-1.131-1.259-1.131
		c-0.591,0-1.104,0.489-1.104,1.131s0.463,1.13,1.104,1.13C192.192,114.363,192.731,113.875,192.731,113.233 M193.604,120.146
		c0-3.084-1.593-4.163-4.238-4.163c-1.567,0-3.418,0.36-4.83,1.002l0.463,1.414c1.259-0.438,2.646-0.694,3.879-0.694
		c2.08,0,2.697,0.771,2.697,2.853v0.797l-3.211,0.205c-3.187,0.206-4.754,1.593-4.754,3.776c0,1.439,0.745,3.599,3.649,3.599
		c0.771,0,2.415,0,4.341-1.646l0.025,0.026c0.052,1.31,0.617,1.593,1.619,1.593c0.668,0,1.567-0.206,2.184-0.514l-0.128-1.233
		h-1.696V120.146z M191.575,122.74v2.929c-1.155,1.055-2.338,1.646-3.416,1.646c-1.646,0-2.313-0.72-2.313-2.184
		c0-1.26,0.823-2.107,2.519-2.185L191.575,122.74z M172.437,119.04c0.591-0.591,2.235-1.284,3.263-1.284
		c1.875,0,3.135,1.027,3.135,4.496c0,3.932-1.49,5.14-3.264,5.14c-1.129,0-2.594-0.488-3.134-0.899V119.04z M172.386,117.293
		l-0.026-1.104h-2.029v17.884h2.08v-5.987c1.028,0.72,2.545,0.873,3.521,0.873c3.7,0,5.036-2.979,5.036-6.654
		c0-3.392-1.105-6.27-4.702-6.27c-1.336,0-2.724,0.539-3.751,1.361L172.386,117.293z M165.038,122.534
		c0,2.263-0.539,4.78-3.262,4.78c-2.955,0-3.469-2.287-3.469-4.78c0-2.362,0.693-4.983,3.469-4.983
		C164.55,117.551,165.038,120.3,165.038,122.534 M167.222,122.483c0-3.289-1.259-6.552-5.446-6.552
		c-4.111,0-5.652,3.263-5.652,6.603c0,3.393,1.283,6.399,5.395,6.399C165.911,128.934,167.222,125.695,167.222,122.483
		 M149.546,117.858l0.077-1.67h-2.055v12.539h2.105v-9.764c1.439-0.154,2.902-0.387,4.342-0.54c0.387-0.488,0.721-1.465,0.721-1.901
		c0-0.514-0.258-0.643-0.644-0.643c-1.284,0-3.134,1.003-4.394,2.081L149.546,117.858z M137.445,129.011
		c0.874,0,2.569-0.283,4.214-1.748l0.051,0.052l0.026,1.413h2.029v-12.565c-0.668,0-1.36,0.026-2.055,0.026v9.507
		c-1.208,1.079-2.698,1.593-3.648,1.593c-1.953,0-2.158-1.053-2.158-2.801v-8.299h-2.081v8.812
		C133.823,126.852,134.028,129.011,137.445,129.011 M130.714,128.728v-1.67h-8.941v-6.835h7.194v-1.593h-7.194v-5.833h8.53v-1.645
		h-10.714v17.575H130.714z"/>
</g>
</svg>
