<?xml version="1.0" encoding="utf-8"?>
<!-- Generator: Adobe Illustrator 16.0.0, SVG Export Plug-In . SVG Version: 6.00 Build 0)  -->
<!DOCTYPE svg PUBLIC "-//W3C//DTD SVG 1.0//EN" "http://www.w3.org/TR/2001/REC-SVG-20010904/DTD/svg10.dtd">
<svg version="1.0" id="Ebene_1" xmlns="http://www.w3.org/2000/svg" xmlns:xlink="http://www.w3.org/1999/xlink" x="0px" y="0px"
	 width="120.943px" height="116.316px" viewBox="0 0 120.943 116.316" enable-background="new 0 0 120.943 116.316"
	 xml:space="preserve">
<g>
	<path fill="#550000" d="M45.352,85.763c-22.883,0-41.5-18.617-41.5-41.5s18.617-41.5,41.5-41.5s41.5,18.617,41.5,41.5
		S68.235,85.763,45.352,85.763z M45.352,18.763c-14.061,0-25.5,11.439-25.5,25.5s11.439,25.5,25.5,25.5s25.5-11.439,25.5-25.5
		S59.413,18.763,45.352,18.763z"/>
</g>
<path fill="#550000" d="M102.86,111.619L64.297,73.056l11.313-11.313l38.563,38.563c0,0,2.378,3.681-2.632,8.698
	S102.86,111.619,102.86,111.619z"/>
</svg>
